<svg xmlns="http://www.w3.org/2000/svg" xmlns:xlink="http://www.w3.org/1999/xlink" width="1900" zoomAndPan="magnify" viewBox="0 0 1425 562.499983" height="750" preserveAspectRatio="xMidYMid meet" version="1.0"><defs><clipPath id="a9735bc95f"><path d="M 0.632812 0 L 1424.367188 0 L 1424.367188 562 L 0.632812 562 Z M 0.632812 0 " clip-rule="nonzero"/></clipPath><clipPath id="091ccfe8c3"><path d="M 0.632812 0 L 570.125 0 L 570.125 209 L 0.632812 209 Z M 0.632812 0 " clip-rule="nonzero"/></clipPath><clipPath id="94d1db75fc"><path d="M 564.253906 0 L 1133.75 0 L 1133.75 209 L 564.253906 209 Z M 564.253906 0 " clip-rule="nonzero"/></clipPath><clipPath id="0ab6411917"><path d="M 1129.179688 0 L 1424.367188 0 L 1424.367188 209 L 1129.179688 209 Z M 1129.179688 0 " clip-rule="nonzero"/></clipPath><clipPath id="d0eff592d7"><path d="M 0.632812 354 L 570.125 354 L 570.125 562 L 0.632812 562 Z M 0.632812 354 " clip-rule="nonzero"/></clipPath><clipPath id="b693d4c5a6"><path d="M 564.253906 354 L 1133.75 354 L 1133.75 562 L 564.253906 562 Z M 564.253906 354 " clip-rule="nonzero"/></clipPath><clipPath id="61952344f0"><path d="M 1129.179688 354 L 1424.367188 354 L 1424.367188 562 L 1129.179688 562 Z M 1129.179688 354 " clip-rule="nonzero"/></clipPath></defs><g clip-path="url(#a9735bc95f)"><path fill="#ffffff" d="M 0.632812 0 L 1424.367188 0 L 1424.367188 569.492188 L 0.632812 569.492188 Z M 0.632812 0 " fill-opacity="1" fill-rule="nonzero"/><path fill="#ffffff" d="M 0.632812 0 L 1424.367188 0 L 1424.367188 562 L 0.632812 562 Z M 0.632812 0 " fill-opacity="1" fill-rule="nonzero"/><path fill="#F5F5F5" d="M 0.632812 0 L 1424.367188 0 L 1424.367188 562 L 0.632812 562 Z M 0.632812 0 " fill-opacity="1" fill-rule="nonzero"/></g><g clip-path="url(#091ccfe8c3)"><path fill="#596673" d="M 570.125 -0.503906 L 486.578125 -0.503906 C 475.316406 -0.503906 468.582031 7.355469 461.835938 20.085938 C 456.382812 13.5625 451.972656 8.90625 447.621094 8.882812 C 436.679688 8.824219 427.199219 8.277344 418.945312 8.277344 C 413.015625 0.546875 407.285156 -4.550781 400.179688 -4.691406 C 371.84375 -5.277344 336.382812 -4.609375 336.042969 -4.597656 C 302.289062 -3.867188 282.054688 30.027344 262.476562 63.402344 C 245.554688 92.257812 228.058594 121.574219 205.546875 121.574219 C 205.5 121.574219 205.441406 121.574219 205.394531 121.574219 C 181.835938 121.574219 166.046875 96.160156 149.328125 66.425781 C 130.089844 32.207031 110.195312 -0.503906 73.148438 -0.503906 L 0.632812 -0.503906 L 0.632812 22.75 L 27.9375 22.75 C 47.847656 33.289062 72.644531 75.070312 90.886719 111.558594 C 114.980469 159.769531 139.878906 208.777344 181.597656 208.777344 C 181.683594 208.777344 181.773438 208.777344 181.855469 208.777344 C 190.785156 208.777344 199.027344 206.101562 206.726562 201.632812 C 207.386719 201.253906 208.03125 200.769531 208.683594 200.351562 C 213.019531 199.792969 217.191406 198.847656 221.203125 197.15625 C 221.503906 197.03125 220.96875 197.273438 221.277344 197.144531 C 221.644531 197.292969 222.828125 198.097656 223.199219 198.242188 C 229.203125 200.660156 235.582031 202.960938 242.421875 202.960938 C 242.511719 202.960938 242.597656 202.960938 242.691406 202.960938 C 254.105469 202.960938 264.402344 197.839844 273.867188 190.929688 C 282.277344 184.796875 290.027344 175.917969 297.339844 166.117188 C 310.976562 147.847656 323.066406 124.382812 334.976562 101.53125 C 351.617188 69.585938 368.699219 36.6875 389.429688 19.003906 C 389.859375 18.636719 390.292969 18.226562 390.734375 17.871094 C 393.042969 17.894531 395.34375 17.894531 397.597656 17.933594 C 400.894531 21.0625 406.996094 30.6875 411.15625 37.257812 C 422.914062 55.828125 432.144531 70.574219 445.476562 69.882812 C 455.726562 69.40625 463.039062 62 469.25 52.316406 C 469.359375 52.464844 469.464844 52.617188 469.582031 52.769531 C 481.566406 69.035156 494.429688 83.691406 507.0625 83.683594 C 507.425781 83.683594 507.777344 83.671875 508.144531 83.648438 C 509.613281 83.542969 511.027344 83.339844 512.386719 83.039062 C 513.347656 82.824219 514.277344 82.554688 515.183594 82.242188 C 516.199219 82.347656 517.222656 82.386719 518.238281 82.328125 C 540.226562 80.859375 550.148438 59.042969 558.121094 39.671875 C 561.125 32.335938 564.203125 22.75 567.417969 22.75 L 570.125 22.75 Z M 203.4375 201.980469 C 196.683594 205.457031 189.355469 208.140625 181.683594 208.140625 C 140.898438 208.140625 116.105469 159.445312 92.222656 111.640625 C 74.351562 75.875 56.007812 40.1875 30.707031 22.75 L 46.226562 22.75 C 47.5 22.75 49.871094 22.441406 51.113281 23.113281 C 76.835938 37.03125 94.226562 69.546875 112.230469 105.203125 C 135.859375 152.003906 160.539062 200.148438 202.296875 200.148438 C 202.382812 200.148438 203.75 200.242188 203.84375 200.242188 C 204.667969 200.242188 204.667969 200.300781 205.476562 200.242188 C 205.835938 200.226562 204.25 201.5625 203.4375 201.980469 Z M 214.285156 194.421875 C 210.324219 195.636719 206.558594 197.148438 202.292969 197.148438 C 202.210938 197.148438 202.136719 197.148438 202.054688 197.148438 C 163.972656 197.148438 140.378906 150.449219 117.566406 105.269531 C 100.96875 72.40625 83.960938 40.1875 60.835938 22.75 L 73.148438 22.75 C 96.796875 22.75 112.621094 48.59375 129.363281 78.386719 C 139.277344 96.015625 149.359375 112.796875 161.859375 126.035156 C 162.46875 126.679688 163.113281 127.039062 163.742188 127.65625 C 164.25 128.640625 164.757812 129.523438 165.273438 130.492188 C 179.390625 156.972656 195.75 181.394531 215.28125 193.421875 C 215.390625 193.488281 214.179688 194.363281 214.285156 194.421875 Z M 217.988281 191.347656 C 217.667969 191.167969 217.332031 191.027344 217.011719 190.84375 C 198.839844 180.191406 184.203125 158.746094 170.808594 134.320312 C 170.621094 133.980469 170.441406 133.636719 170.261719 133.300781 C 170.375 133.394531 170.488281 132.835938 170.601562 132.933594 C 180.414062 140.738281 191.722656 144.828125 205.359375 144.828125 C 205.457031 144.828125 205.558594 144.828125 205.65625 144.828125 C 241.210938 144.828125 262.066406 109.484375 282.234375 75.089844 C 298.628906 47.140625 315.582031 18.429688 336.554688 17.976562 C 336.585938 17.96875 336.917969 18.125 337.464844 18.101562 C 337.402344 18.136719 337.335938 18.253906 337.265625 18.296875 C 311.355469 33.339844 291.503906 71.476562 272.164062 108.59375 C 255.933594 139.742188 239.34375 171.601562 219.125 190.34375 C 218.75 190.691406 218.367188 191.011719 217.988281 191.347656 Z M 220.316406 191.242188 C 220.78125 190.8125 221.253906 190.398438 221.71875 189.953125 C 241.417969 170.882812 257.621094 139.777344 273.488281 109.320312 C 292.980469 71.90625 313.011719 33.472656 339.039062 19.089844 C 339.625 18.765625 340.21875 18.476562 340.8125 18.171875 C 342.410156 18.132812 344.402344 18.085938 346.722656 18.050781 C 346.304688 18.339844 345.886719 18.539062 345.472656 18.847656 C 322.792969 35.554688 305.015625 69.308594 287.675781 102.257812 C 267.808594 140 247.378906 178.796875 220.316406 191.242188 Z M 385.132812 18.695312 C 365.011719 37.171875 348.460938 68.921875 332.320312 99.902344 C 320.496094 122.597656 308.480469 145.671875 295.027344 163.726562 C 287.699219 173.554688 279.953125 181.488281 271.574219 187.480469 C 262.722656 193.800781 253.164062 197.148438 242.671875 197.148438 C 242.59375 197.148438 242.511719 197.148438 242.421875 197.148438 C 236.933594 197.148438 231.730469 196.648438 226.78125 194.945312 C 226.476562 194.839844 226.1875 194.90625 225.886719 194.796875 C 226.128906 194.671875 226.375 194.671875 226.617188 194.539062 C 253.546875 179.664062 273.511719 141.871094 292.964844 104.925781 C 311.761719 69.203125 331.089844 32.566406 355.875 19.265625 C 356.914062 18.707031 357.96875 18.277344 359.023438 17.808594 C 367.175781 17.726562 376.707031 17.695312 386.191406 17.765625 C 385.835938 18.074219 385.488281 18.375 385.132812 18.695312 Z M 445.484375 46.210938 C 441.457031 42.292969 434.722656 31.671875 430.496094 24.984375 C 427.933594 20.929688 425.535156 17.167969 423.214844 13.730469 C 427.859375 13.730469 432.902344 13.742188 438.292969 13.765625 C 442.628906 16.101562 448.074219 22.804688 453.980469 30.910156 C 454.195312 31.207031 454.414062 31.527344 454.636719 31.828125 C 451.53125 37.648438 447.933594 43.914062 445.484375 46.210938 Z M 458.371094 24.644531 C 457.523438 26.292969 456.511719 28.269531 455.414062 30.359375 C 455.234375 30.113281 455.046875 29.847656 454.867188 29.601562 C 449.761719 22.613281 445.097656 16.847656 440.996094 13.777344 C 443.128906 13.785156 445.324219 13.796875 447.585938 13.808594 C 450.171875 13.820312 454.269531 18.023438 458.832031 23.742188 C 458.675781 24.050781 458.523438 24.335938 458.371094 24.644531 Z M 510.917969 81.792969 C 509.980469 81.964844 509.015625 82.085938 508.035156 82.15625 C 507.714844 82.171875 507.40625 82.183594 507.085938 82.183594 C 495.058594 82.183594 482.023438 67.144531 470.417969 51.375 C 470.308594 51.226562 470.214844 51.082031 470.105469 50.941406 C 471.402344 48.851562 472.648438 46.671875 473.863281 44.433594 C 474.085938 44.746094 474.300781 45.046875 474.519531 45.363281 C 485.789062 61.222656 497.992188 77.167969 510.792969 81.316406 C 511.125 81.429688 511.457031 81.503906 511.792969 81.597656 C 511.503906 81.65625 511.214844 81.738281 510.917969 81.792969 Z M 523.882812 75.703125 C 523.472656 75.832031 523.066406 75.847656 522.65625 75.96875 C 521.125 76.40625 519.523438 76.457031 517.835938 76.574219 C 505.285156 77.433594 490.136719 57.15625 477.601562 39.472656 C 477.398438 39.1875 477.195312 39.308594 476.996094 39.019531 C 477.578125 37.878906 478.164062 38.527344 478.75 37.386719 C 481.664062 31.695312 485.933594 22.75 488.578125 22.75 L 553.773438 22.75 C 551.082031 22.75 548.589844 32.5625 545.929688 39.027344 C 541.144531 50.640625 535.648438 63.523438 527.460938 72.464844 C 526.320312 73.71875 525.128906 74.644531 523.882812 75.703125 Z M 552.589844 37.378906 C 546.859375 51.296875 540.570312 65.449219 530.246094 72.917969 C 529.402344 73.523438 528.53125 73.777344 527.640625 74.21875 C 528.546875 73.285156 529.4375 72.207031 530.273438 71.179688 C 537.683594 62.152344 542.808594 50.582031 547.304688 39.652344 C 550.105469 32.859375 552.714844 22.75 555.488281 22.75 L 560.289062 22.75 C 557.660156 22.75 555.246094 30.925781 552.589844 37.378906 Z M 552.589844 37.378906 " fill-opacity="1" fill-rule="nonzero"/></g><g clip-path="url(#94d1db75fc)"><path fill="#596673" d="M 1133.75 -0.503906 L 1050.203125 -0.503906 C 1038.9375 -0.503906 1032.203125 7.355469 1025.457031 20.085938 C 1020.007812 13.5625 1015.597656 8.90625 1011.242188 8.882812 C 1000.300781 8.824219 990.824219 8.277344 982.566406 8.277344 C 976.636719 0.546875 970.90625 -4.550781 963.800781 -4.691406 C 935.464844 -5.277344 900.007812 -4.609375 899.664062 -4.597656 C 865.910156 -3.867188 845.675781 30.027344 826.101562 63.402344 C 809.175781 92.257812 791.679688 121.574219 769.167969 121.574219 C 769.121094 121.574219 769.0625 121.574219 769.015625 121.574219 C 745.457031 121.574219 729.667969 96.160156 712.949219 66.425781 C 693.710938 32.207031 673.816406 -0.503906 636.773438 -0.503906 L 564.253906 -0.503906 L 564.253906 22.75 L 591.5625 22.75 C 611.46875 33.289062 636.265625 75.070312 654.507812 111.558594 C 678.601562 159.769531 703.5 208.777344 745.21875 208.777344 C 745.308594 208.777344 745.394531 208.777344 745.476562 208.777344 C 754.40625 208.777344 762.648438 206.101562 770.347656 201.632812 C 771.011719 201.253906 771.65625 200.769531 772.304688 200.351562 C 776.640625 199.792969 780.8125 198.847656 784.824219 197.15625 C 785.125 197.03125 784.589844 197.273438 784.898438 197.144531 C 785.265625 197.292969 786.449219 198.097656 786.820312 198.242188 C 792.824219 200.660156 799.207031 202.960938 806.046875 202.960938 C 806.132812 202.960938 806.21875 202.960938 806.3125 202.960938 C 817.726562 202.960938 828.023438 197.839844 837.488281 190.929688 C 845.898438 184.796875 853.652344 175.917969 860.960938 166.117188 C 874.601562 147.847656 886.6875 124.382812 898.601562 101.53125 C 915.238281 69.585938 932.320312 36.6875 953.050781 19.003906 C 953.480469 18.636719 953.917969 18.226562 954.359375 17.871094 C 956.664062 17.894531 958.964844 17.894531 961.222656 17.933594 C 964.515625 21.0625 970.617188 30.6875 974.777344 37.257812 C 986.535156 55.828125 995.769531 70.574219 1009.097656 69.882812 C 1019.351562 69.40625 1026.660156 62 1032.871094 52.316406 C 1032.984375 52.464844 1033.085938 52.617188 1033.203125 52.769531 C 1045.1875 69.035156 1058.050781 83.691406 1070.6875 83.683594 C 1071.046875 83.683594 1071.402344 83.671875 1071.765625 83.648438 C 1073.238281 83.542969 1074.648438 83.339844 1076.007812 83.039062 C 1076.96875 82.824219 1077.898438 82.554688 1078.804688 82.242188 C 1079.820312 82.347656 1080.84375 82.386719 1081.859375 82.328125 C 1103.851562 80.859375 1113.769531 59.042969 1121.742188 39.671875 C 1124.746094 32.335938 1127.828125 22.75 1131.039062 22.75 L 1133.75 22.75 Z M 767.058594 201.980469 C 760.304688 205.457031 752.976562 208.140625 745.308594 208.140625 C 704.519531 208.140625 679.726562 159.445312 655.84375 111.640625 C 637.976562 75.875 619.628906 40.1875 594.328125 22.75 L 609.847656 22.75 C 611.121094 22.75 613.492188 22.441406 614.734375 23.113281 C 640.457031 37.03125 657.847656 69.546875 675.851562 105.203125 C 699.480469 152.003906 724.160156 200.148438 765.917969 200.148438 C 766.007812 200.148438 767.371094 200.242188 767.464844 200.242188 C 768.289062 200.242188 768.289062 200.300781 769.097656 200.242188 C 769.457031 200.226562 767.871094 201.5625 767.058594 201.980469 Z M 777.90625 194.421875 C 773.945312 195.636719 770.179688 197.148438 765.914062 197.148438 C 765.832031 197.148438 765.757812 197.148438 765.675781 197.148438 C 727.59375 197.148438 704 150.449219 681.1875 105.269531 C 664.589844 72.40625 647.582031 40.1875 624.457031 22.75 L 636.773438 22.75 C 660.417969 22.75 676.242188 48.59375 692.984375 78.386719 C 702.898438 96.015625 712.980469 112.796875 725.480469 126.035156 C 726.089844 126.679688 726.734375 127.039062 727.363281 127.65625 C 727.875 128.640625 728.378906 129.523438 728.894531 130.492188 C 743.011719 156.972656 759.371094 181.394531 778.902344 193.421875 C 779.011719 193.488281 777.804688 194.363281 777.90625 194.421875 Z M 781.609375 191.347656 C 781.289062 191.167969 780.953125 191.027344 780.632812 190.84375 C 762.460938 180.191406 747.824219 158.746094 734.429688 134.320312 C 734.242188 133.980469 734.0625 133.636719 733.882812 133.300781 C 734 133.394531 734.109375 132.835938 734.226562 132.933594 C 744.035156 140.738281 755.34375 144.828125 768.980469 144.828125 C 769.082031 144.828125 769.179688 144.828125 769.277344 144.828125 C 804.832031 144.828125 825.6875 109.484375 845.859375 75.089844 C 862.25 47.140625 879.203125 18.429688 900.175781 17.976562 C 900.210938 17.96875 900.539062 18.125 901.085938 18.101562 C 901.023438 18.136719 900.960938 18.253906 900.890625 18.296875 C 874.976562 33.339844 855.125 71.476562 835.785156 108.59375 C 819.554688 139.742188 802.964844 171.601562 782.75 190.34375 C 782.371094 190.691406 781.988281 191.011719 781.609375 191.347656 Z M 783.941406 191.242188 C 784.40625 190.8125 784.875 190.398438 785.339844 189.953125 C 805.039062 170.882812 821.242188 139.777344 837.113281 109.320312 C 856.601562 71.90625 876.632812 33.472656 902.660156 19.089844 C 903.25 18.765625 903.839844 18.476562 904.433594 18.171875 C 906.03125 18.132812 908.027344 18.085938 910.34375 18.050781 C 909.925781 18.339844 909.507812 18.539062 909.09375 18.847656 C 886.414062 35.554688 868.636719 69.308594 851.296875 102.257812 C 831.429688 140 811.003906 178.796875 783.941406 191.242188 Z M 948.757812 18.695312 C 928.632812 37.171875 912.082031 68.921875 895.945312 99.902344 C 884.117188 122.597656 872.101562 145.671875 858.648438 163.726562 C 851.320312 173.554688 843.574219 181.488281 835.195312 187.480469 C 826.34375 193.800781 816.785156 197.148438 806.296875 197.148438 C 806.214844 197.148438 806.132812 197.148438 806.046875 197.148438 C 800.554688 197.148438 795.351562 196.648438 790.402344 194.945312 C 790.097656 194.839844 789.808594 194.90625 789.507812 194.796875 C 789.75 194.671875 789.996094 194.671875 790.238281 194.539062 C 817.167969 179.664062 837.136719 141.871094 856.585938 104.925781 C 875.382812 69.203125 894.710938 32.566406 919.496094 19.265625 C 920.535156 18.707031 921.589844 18.277344 922.644531 17.808594 C 930.800781 17.726562 940.328125 17.695312 949.8125 17.765625 C 949.460938 18.074219 949.109375 18.375 948.757812 18.695312 Z M 1009.105469 46.210938 C 1005.078125 42.292969 998.34375 31.671875 994.117188 24.984375 C 991.554688 20.929688 989.15625 17.167969 986.835938 13.730469 C 991.480469 13.730469 996.523438 13.742188 1001.917969 13.765625 C 1006.25 16.101562 1011.695312 22.804688 1017.601562 30.910156 C 1017.816406 31.207031 1018.035156 31.527344 1018.257812 31.828125 C 1015.152344 37.648438 1011.558594 43.914062 1009.105469 46.210938 Z M 1021.992188 24.644531 C 1021.144531 26.292969 1020.132812 28.269531 1019.035156 30.359375 C 1018.855469 30.113281 1018.667969 29.847656 1018.488281 29.601562 C 1013.382812 22.613281 1008.722656 16.847656 1004.617188 13.777344 C 1006.75 13.785156 1008.949219 13.796875 1011.207031 13.808594 C 1013.792969 13.820312 1017.890625 18.023438 1022.453125 23.742188 C 1022.296875 24.050781 1022.144531 24.335938 1021.992188 24.644531 Z M 1074.539062 81.792969 C 1073.601562 81.964844 1072.636719 82.085938 1071.65625 82.15625 C 1071.335938 82.171875 1071.027344 82.183594 1070.707031 82.183594 C 1058.679688 82.183594 1045.644531 67.144531 1034.039062 51.375 C 1033.929688 51.226562 1033.835938 51.082031 1033.726562 50.941406 C 1035.023438 48.851562 1036.273438 46.671875 1037.488281 44.433594 C 1037.707031 44.746094 1037.921875 45.046875 1038.144531 45.363281 C 1049.410156 61.222656 1061.613281 77.167969 1074.417969 81.316406 C 1074.746094 81.429688 1075.078125 81.503906 1075.414062 81.597656 C 1075.125 81.65625 1074.835938 81.738281 1074.539062 81.792969 Z M 1087.503906 75.703125 C 1087.097656 75.832031 1086.691406 75.847656 1086.277344 75.96875 C 1084.75 76.40625 1083.144531 76.457031 1081.460938 76.574219 C 1068.90625 77.433594 1053.757812 57.15625 1041.222656 39.472656 C 1041.019531 39.1875 1040.816406 39.308594 1040.617188 39.019531 C 1041.199219 37.878906 1041.785156 38.527344 1042.375 37.386719 C 1045.285156 31.695312 1049.554688 22.75 1052.199219 22.75 L 1117.394531 22.75 C 1114.707031 22.75 1112.210938 32.5625 1109.550781 39.027344 C 1104.769531 50.640625 1099.269531 63.523438 1091.082031 72.464844 C 1089.945312 73.71875 1088.753906 74.644531 1087.503906 75.703125 Z M 1116.210938 37.378906 C 1110.480469 51.296875 1104.191406 65.449219 1093.867188 72.917969 C 1093.023438 73.523438 1092.152344 73.777344 1091.261719 74.21875 C 1092.167969 73.285156 1093.058594 72.207031 1093.894531 71.179688 C 1101.304688 62.152344 1106.429688 50.582031 1110.929688 39.652344 C 1113.730469 32.859375 1116.339844 22.75 1119.109375 22.75 L 1123.910156 22.75 C 1121.285156 22.75 1118.867188 30.925781 1116.210938 37.378906 Z M 1116.210938 37.378906 " fill-opacity="1" fill-rule="nonzero"/></g><g clip-path="url(#0ab6411917)"><path fill="#596673" d="M 1698.675781 -0.503906 L 1615.128906 -0.503906 C 1603.867188 -0.503906 1597.128906 7.355469 1590.382812 20.085938 C 1584.933594 13.5625 1580.523438 8.90625 1576.167969 8.882812 C 1565.226562 8.824219 1555.75 8.277344 1547.492188 8.277344 C 1541.5625 0.546875 1535.835938 -4.550781 1528.726562 -4.691406 C 1500.390625 -5.277344 1464.933594 -4.609375 1464.589844 -4.597656 C 1430.839844 -3.867188 1410.605469 30.027344 1391.027344 63.402344 C 1374.105469 92.257812 1356.605469 121.574219 1334.09375 121.574219 C 1334.046875 121.574219 1333.988281 121.574219 1333.941406 121.574219 C 1310.386719 121.574219 1294.597656 96.160156 1277.878906 66.425781 C 1258.636719 32.207031 1238.746094 -0.503906 1201.699219 -0.503906 L 1129.179688 -0.503906 L 1129.179688 22.75 L 1156.488281 22.75 C 1176.398438 33.289062 1201.191406 75.070312 1219.433594 111.558594 C 1243.527344 159.769531 1268.429688 208.777344 1310.148438 208.777344 C 1310.234375 208.777344 1310.320312 208.777344 1310.402344 208.777344 C 1319.332031 208.777344 1327.574219 206.101562 1335.273438 201.632812 C 1335.9375 201.253906 1336.582031 200.769531 1337.230469 200.351562 C 1341.566406 199.792969 1345.738281 198.847656 1349.75 197.15625 C 1350.050781 197.03125 1349.515625 197.273438 1349.824219 197.144531 C 1350.191406 197.292969 1351.375 198.097656 1351.75 198.242188 C 1357.75 200.660156 1364.132812 202.960938 1370.972656 202.960938 C 1371.058594 202.960938 1371.144531 202.960938 1371.238281 202.960938 C 1382.652344 202.960938 1392.949219 197.839844 1402.417969 190.929688 C 1410.824219 184.796875 1418.578125 175.917969 1425.886719 166.117188 C 1439.527344 147.847656 1451.613281 124.382812 1463.527344 101.53125 C 1480.164062 69.585938 1497.25 36.6875 1517.976562 19.003906 C 1518.40625 18.636719 1518.84375 18.226562 1519.285156 17.871094 C 1521.589844 17.894531 1523.894531 17.894531 1526.148438 17.933594 C 1529.441406 21.0625 1535.542969 30.6875 1539.703125 37.257812 C 1551.460938 55.828125 1560.695312 70.574219 1574.027344 69.882812 C 1584.277344 69.40625 1591.585938 62 1597.800781 52.316406 C 1597.910156 52.464844 1598.015625 52.617188 1598.128906 52.769531 C 1610.113281 69.035156 1622.980469 83.691406 1635.613281 83.683594 C 1635.972656 83.683594 1636.328125 83.671875 1636.691406 83.648438 C 1638.164062 83.542969 1639.574219 83.339844 1640.933594 83.039062 C 1641.894531 82.824219 1642.824219 82.554688 1643.730469 82.242188 C 1644.746094 82.347656 1645.769531 82.386719 1646.789062 82.328125 C 1668.777344 80.859375 1678.695312 59.042969 1686.667969 39.671875 C 1689.671875 32.335938 1692.753906 22.75 1695.96875 22.75 L 1698.675781 22.75 Z M 1331.984375 201.980469 C 1325.230469 205.457031 1317.90625 208.140625 1310.234375 208.140625 C 1269.445312 208.140625 1244.65625 159.445312 1220.769531 111.640625 C 1202.902344 75.875 1184.554688 40.1875 1159.253906 22.75 L 1174.777344 22.75 C 1176.046875 22.75 1178.417969 22.441406 1179.664062 23.113281 C 1205.382812 37.03125 1222.777344 69.546875 1240.777344 105.203125 C 1264.40625 152.003906 1289.085938 200.148438 1330.847656 200.148438 C 1330.933594 200.148438 1332.296875 200.242188 1332.390625 200.242188 C 1333.21875 200.242188 1333.21875 200.300781 1334.023438 200.242188 C 1334.386719 200.226562 1332.796875 201.5625 1331.984375 201.980469 Z M 1342.835938 194.421875 C 1338.871094 195.636719 1335.105469 197.148438 1330.839844 197.148438 C 1330.757812 197.148438 1330.683594 197.148438 1330.601562 197.148438 C 1292.519531 197.148438 1268.929688 150.449219 1246.113281 105.269531 C 1229.515625 72.40625 1212.507812 40.1875 1189.386719 22.75 L 1201.699219 22.75 C 1225.34375 22.75 1241.167969 48.59375 1257.910156 78.386719 C 1267.824219 96.015625 1277.90625 112.796875 1290.40625 126.035156 C 1291.015625 126.679688 1291.660156 127.039062 1292.289062 127.65625 C 1292.800781 128.640625 1293.304688 129.523438 1293.824219 130.492188 C 1307.9375 156.972656 1324.296875 181.394531 1343.828125 193.421875 C 1343.9375 193.488281 1342.730469 194.363281 1342.835938 194.421875 Z M 1346.535156 191.347656 C 1346.214844 191.167969 1345.878906 191.027344 1345.558594 190.84375 C 1327.386719 180.191406 1312.75 158.746094 1299.355469 134.320312 C 1299.167969 133.980469 1298.988281 133.636719 1298.808594 133.300781 C 1298.925781 133.394531 1299.035156 132.835938 1299.152344 132.933594 C 1308.960938 140.738281 1320.269531 144.828125 1333.910156 144.828125 C 1334.007812 144.828125 1334.105469 144.828125 1334.203125 144.828125 C 1369.757812 144.828125 1390.613281 109.484375 1410.785156 75.089844 C 1427.175781 47.140625 1444.128906 18.429688 1465.101562 17.976562 C 1465.136719 17.96875 1465.46875 18.125 1466.011719 18.101562 C 1465.949219 18.136719 1465.886719 18.253906 1465.816406 18.296875 C 1439.902344 33.339844 1420.054688 71.476562 1400.714844 108.59375 C 1384.484375 139.742188 1367.890625 171.601562 1347.675781 190.34375 C 1347.296875 190.691406 1346.914062 191.011719 1346.535156 191.347656 Z M 1348.867188 191.242188 C 1349.332031 190.8125 1349.800781 190.398438 1350.265625 189.953125 C 1369.964844 170.882812 1386.167969 139.777344 1402.039062 109.320312 C 1421.527344 71.90625 1441.558594 33.472656 1467.589844 19.089844 C 1468.175781 18.765625 1468.769531 18.476562 1469.359375 18.171875 C 1470.957031 18.132812 1472.953125 18.085938 1475.269531 18.050781 C 1474.851562 18.339844 1474.433594 18.539062 1474.019531 18.847656 C 1451.339844 35.554688 1433.5625 69.308594 1416.222656 102.257812 C 1396.355469 140 1375.929688 178.796875 1348.867188 191.242188 Z M 1513.683594 18.695312 C 1493.558594 37.171875 1477.007812 68.921875 1460.871094 99.902344 C 1449.042969 122.597656 1437.027344 145.671875 1423.574219 163.726562 C 1416.246094 173.554688 1408.5 181.488281 1400.121094 187.480469 C 1391.269531 193.800781 1381.710938 197.148438 1371.222656 197.148438 C 1371.140625 197.148438 1371.058594 197.148438 1370.972656 197.148438 C 1365.480469 197.148438 1360.28125 196.648438 1355.328125 194.945312 C 1355.027344 194.839844 1354.734375 194.90625 1354.433594 194.796875 C 1354.675781 194.671875 1354.921875 194.671875 1355.164062 194.539062 C 1382.09375 179.664062 1402.0625 141.871094 1421.511719 104.925781 C 1440.3125 69.203125 1459.640625 32.566406 1484.421875 19.265625 C 1485.464844 18.707031 1486.515625 18.277344 1487.574219 17.808594 C 1495.726562 17.726562 1505.257812 17.695312 1514.738281 17.765625 C 1514.386719 18.074219 1514.035156 18.375 1513.683594 18.695312 Z M 1574.03125 46.210938 C 1570.003906 42.292969 1563.269531 31.671875 1559.042969 24.984375 C 1556.480469 20.929688 1554.082031 17.167969 1551.761719 13.730469 C 1556.40625 13.730469 1561.449219 13.742188 1566.84375 13.765625 C 1571.179688 16.101562 1576.625 22.804688 1582.527344 30.910156 C 1582.742188 31.207031 1582.964844 31.527344 1583.183594 31.828125 C 1580.082031 37.648438 1576.484375 43.914062 1574.03125 46.210938 Z M 1586.921875 24.644531 C 1586.070312 26.292969 1585.0625 28.269531 1583.960938 30.359375 C 1583.78125 30.113281 1583.597656 29.847656 1583.417969 29.601562 C 1578.308594 22.613281 1573.648438 16.847656 1569.546875 13.777344 C 1571.679688 13.785156 1573.875 13.796875 1576.136719 13.808594 C 1578.722656 13.820312 1582.816406 18.023438 1587.378906 23.742188 C 1587.222656 24.050781 1587.070312 24.335938 1586.921875 24.644531 Z M 1639.464844 81.792969 C 1638.53125 81.964844 1637.566406 82.085938 1636.582031 82.15625 C 1636.261719 82.171875 1635.953125 82.183594 1635.636719 82.183594 C 1623.605469 82.183594 1610.570312 67.144531 1598.96875 51.375 C 1598.855469 51.226562 1598.761719 51.082031 1598.652344 50.941406 C 1599.949219 48.851562 1601.199219 46.671875 1602.414062 44.433594 C 1602.632812 44.746094 1602.847656 45.046875 1603.070312 45.363281 C 1614.335938 61.222656 1626.539062 77.167969 1639.34375 81.316406 C 1639.675781 81.429688 1640.003906 81.503906 1640.34375 81.597656 C 1640.050781 81.65625 1639.761719 81.738281 1639.464844 81.792969 Z M 1652.429688 75.703125 C 1652.023438 75.832031 1651.617188 75.847656 1651.203125 75.96875 C 1649.675781 76.40625 1648.070312 76.457031 1646.386719 76.574219 C 1633.835938 77.433594 1618.683594 57.15625 1606.148438 39.472656 C 1605.945312 39.1875 1605.742188 39.308594 1605.546875 39.019531 C 1606.125 37.878906 1606.714844 38.527344 1607.300781 37.386719 C 1610.210938 31.695312 1614.484375 22.75 1617.125 22.75 L 1682.324219 22.75 C 1679.632812 22.75 1677.140625 32.5625 1674.476562 39.027344 C 1669.695312 50.640625 1664.199219 63.523438 1656.007812 72.464844 C 1654.871094 73.71875 1653.679688 74.644531 1652.429688 75.703125 Z M 1681.136719 37.378906 C 1675.40625 51.296875 1669.121094 65.449219 1658.792969 72.917969 C 1657.949219 73.523438 1657.078125 73.777344 1656.191406 74.21875 C 1657.097656 73.285156 1657.984375 72.207031 1658.820312 71.179688 C 1666.230469 62.152344 1671.355469 50.582031 1675.855469 39.652344 C 1678.65625 32.859375 1681.265625 22.75 1684.035156 22.75 L 1688.835938 22.75 C 1686.210938 22.75 1683.792969 30.925781 1681.136719 37.378906 Z M 1681.136719 37.378906 " fill-opacity="1" fill-rule="nonzero"/></g><g clip-path="url(#d0eff592d7)"><path fill="#2c333a" d="M 0.632812 563.761719 L 84.179688 563.761719 C 95.441406 563.761719 102.175781 555.902344 108.921875 543.171875 C 114.375 549.695312 118.785156 554.351562 123.136719 554.375 C 134.082031 554.433594 143.558594 554.976562 151.816406 554.976562 C 157.742188 562.710938 163.472656 567.808594 170.582031 567.949219 C 198.914062 568.535156 234.375 567.867188 234.71875 567.855469 C 268.46875 567.121094 288.703125 533.230469 308.28125 499.855469 C 325.203125 471 342.699219 441.679688 365.214844 441.679688 C 365.261719 441.679688 365.316406 441.679688 365.363281 441.679688 C 388.921875 441.679688 404.710938 467.097656 421.429688 496.832031 C 440.671875 531.050781 460.5625 563.761719 497.609375 563.761719 L 570.125 563.761719 L 570.125 540.507812 L 542.820312 540.507812 C 522.910156 529.96875 498.113281 488.1875 479.875 451.699219 C 455.78125 403.488281 430.878906 354.480469 389.160156 354.480469 C 389.074219 354.480469 388.988281 354.480469 388.90625 354.480469 C 379.972656 354.480469 371.734375 357.15625 364.035156 361.625 C 363.371094 362.003906 362.726562 362.484375 362.074219 362.902344 C 357.738281 363.460938 353.566406 364.410156 349.558594 366.101562 C 349.257812 366.222656 349.789062 365.984375 349.484375 366.113281 C 349.117188 365.960938 347.929688 365.160156 347.558594 365.015625 C 341.554688 362.597656 335.175781 360.292969 328.335938 360.292969 C 328.25 360.292969 328.160156 360.292969 328.070312 360.292969 C 316.65625 360.292969 306.359375 365.414062 296.890625 372.328125 C 288.484375 378.460938 280.730469 387.335938 273.421875 397.140625 C 259.78125 415.410156 247.695312 438.875 235.78125 461.726562 C 219.144531 493.671875 202.058594 526.566406 181.332031 544.253906 C 180.902344 544.617188 180.464844 545.03125 180.023438 545.386719 C 177.714844 545.363281 175.414062 545.363281 173.160156 545.320312 C 169.867188 542.195312 163.761719 532.566406 159.601562 526 C 147.847656 507.429688 138.613281 492.683594 125.28125 493.375 C 115.03125 493.851562 107.722656 501.257812 101.507812 510.941406 C 101.398438 510.789062 101.292969 510.640625 101.175781 510.488281 C 89.195312 494.222656 76.328125 479.566406 63.695312 479.574219 C 63.335938 479.574219 62.980469 479.585938 62.613281 479.609375 C 61.144531 479.710938 59.730469 479.914062 58.371094 480.21875 C 57.414062 480.433594 56.484375 480.699219 55.578125 481.015625 C 54.558594 480.910156 53.539062 480.871094 52.519531 480.925781 C 30.53125 482.398438 20.613281 504.214844 12.636719 523.585938 C 9.632812 530.921875 6.554688 540.507812 3.339844 540.507812 L 0.632812 540.507812 Z M 367.324219 361.277344 C 374.074219 357.800781 381.402344 355.113281 389.074219 355.113281 C 429.863281 355.113281 454.652344 403.8125 478.535156 451.617188 C 496.40625 487.378906 514.753906 523.070312 540.054688 540.507812 L 524.53125 540.507812 C 523.257812 540.507812 520.886719 540.816406 519.644531 540.140625 C 493.925781 526.226562 476.53125 493.710938 458.527344 458.050781 C 434.902344 411.253906 410.222656 363.109375 368.460938 363.109375 C 368.375 363.109375 367.007812 363.015625 366.917969 363.015625 C 366.089844 363.015625 366.089844 362.957031 365.28125 363.015625 C 364.921875 363.03125 366.507812 361.695312 367.324219 361.277344 Z M 356.472656 368.832031 C 360.4375 367.617188 364.203125 366.109375 368.46875 366.109375 C 368.550781 366.109375 368.625 366.109375 368.707031 366.109375 C 406.785156 366.109375 430.378906 412.804688 453.195312 457.988281 C 469.789062 490.851562 486.800781 523.070312 509.921875 540.507812 L 497.609375 540.507812 C 473.964844 540.507812 458.140625 514.664062 441.398438 484.867188 C 431.484375 467.242188 421.402344 450.460938 408.902344 437.222656 C 408.292969 436.578125 407.644531 436.214844 407.019531 435.601562 C 406.507812 434.617188 406 433.734375 405.484375 432.761719 C 391.371094 406.285156 375.011719 381.863281 355.480469 369.832031 C 355.371094 369.769531 356.578125 368.890625 356.472656 368.832031 Z M 352.773438 371.910156 C 353.089844 372.089844 353.429688 372.230469 353.746094 372.414062 C 371.917969 383.066406 386.558594 404.511719 399.953125 428.9375 C 400.136719 429.277344 400.320312 429.617188 400.5 429.957031 C 400.382812 429.863281 400.273438 430.421875 400.15625 430.320312 C 390.347656 422.519531 379.039062 418.429688 365.398438 418.429688 C 365.300781 418.429688 365.203125 418.429688 365.101562 418.429688 C 329.550781 418.429688 308.695312 453.773438 288.523438 488.164062 C 272.128906 516.117188 255.179688 544.828125 234.207031 545.28125 C 234.171875 545.289062 233.839844 545.128906 233.292969 545.152344 C 233.359375 545.117188 233.421875 545.003906 233.492188 544.960938 C 259.402344 529.917969 279.253906 491.78125 298.59375 454.664062 C 314.824219 423.515625 331.414062 391.65625 351.632812 372.914062 C 352.011719 372.566406 352.394531 372.246094 352.773438 371.910156 Z M 350.441406 372.015625 C 349.976562 372.445312 349.503906 372.855469 349.039062 373.304688 C 329.339844 392.371094 313.140625 423.480469 297.269531 453.9375 C 277.777344 491.351562 257.746094 529.78125 231.71875 544.164062 C 231.132812 544.492188 230.539062 544.78125 229.945312 545.082031 C 228.347656 545.125 226.355469 545.171875 224.035156 545.207031 C 224.457031 544.914062 224.875 544.71875 225.285156 544.410156 C 247.96875 527.703125 265.742188 493.949219 283.085938 461 C 302.953125 423.257812 323.378906 384.460938 350.441406 372.015625 Z M 185.625 544.5625 C 205.75 526.085938 222.300781 494.332031 238.4375 463.355469 C 250.261719 440.65625 262.28125 417.585938 275.734375 399.527344 C 283.0625 389.703125 290.808594 381.769531 299.1875 375.773438 C 308.039062 369.457031 317.597656 366.109375 328.085938 366.109375 C 328.167969 366.109375 328.25 366.109375 328.335938 366.109375 C 333.828125 366.109375 339.027344 366.605469 343.980469 368.3125 C 344.28125 368.414062 344.570312 368.351562 344.875 368.460938 C 344.628906 368.582031 344.386719 368.582031 344.140625 368.71875 C 317.214844 383.59375 297.246094 421.386719 277.796875 458.332031 C 258.996094 494.054688 239.667969 530.691406 214.882812 543.992188 C 213.84375 544.550781 212.792969 544.980469 211.734375 545.449219 C 203.582031 545.53125 194.050781 545.558594 184.566406 545.492188 C 184.921875 545.183594 185.269531 544.878906 185.625 544.5625 Z M 125.277344 517.046875 C 129.304688 520.964844 136.039062 531.585938 140.261719 538.269531 C 142.824219 542.328125 145.226562 546.089844 147.542969 549.523438 C 142.902344 549.523438 137.859375 549.511719 132.464844 549.492188 C 128.128906 547.152344 122.683594 540.449219 116.78125 532.347656 C 116.566406 532.050781 116.34375 531.730469 116.125 531.429688 C 119.226562 525.609375 122.824219 519.34375 125.277344 517.046875 Z M 112.386719 538.613281 C 113.234375 536.960938 114.246094 534.984375 115.34375 532.898438 C 115.523438 533.144531 115.710938 533.410156 115.890625 533.65625 C 121 540.640625 125.660156 546.410156 129.761719 549.480469 C 127.628906 549.472656 125.433594 549.460938 123.171875 549.449219 C 120.585938 549.4375 116.488281 545.234375 111.929688 539.515625 C 112.085938 539.207031 112.234375 538.921875 112.386719 538.613281 Z M 59.84375 481.460938 C 60.777344 481.292969 61.742188 481.171875 62.726562 481.101562 C 63.042969 481.085938 63.351562 481.074219 63.671875 481.074219 C 75.703125 481.074219 88.734375 496.113281 100.339844 511.882812 C 100.449219 512.027344 100.542969 512.175781 100.65625 512.3125 C 99.359375 514.40625 98.109375 516.585938 96.894531 518.824219 C 96.671875 518.511719 96.457031 518.207031 96.238281 517.894531 C 84.96875 502.035156 72.765625 486.089844 59.964844 481.9375 C 59.632812 481.828125 59.300781 481.753906 58.964844 481.660156 C 59.253906 481.601562 59.546875 481.519531 59.84375 481.460938 Z M 46.878906 487.554688 C 47.285156 487.425781 47.691406 487.410156 48.105469 487.289062 C 49.632812 486.851562 51.238281 486.800781 52.921875 486.683594 C 65.472656 485.824219 80.625 506.097656 93.15625 523.785156 C 93.363281 524.070312 93.566406 523.945312 93.761719 524.238281 C 93.179688 525.375 92.59375 524.730469 92.007812 525.871094 C 89.097656 531.5625 84.824219 540.507812 82.179688 540.507812 L 16.984375 540.507812 C 19.675781 540.507812 22.167969 530.695312 24.832031 524.230469 C 29.613281 512.617188 35.109375 499.734375 43.296875 490.792969 C 44.4375 489.535156 45.628906 488.613281 46.878906 487.554688 Z M 18.171875 525.875 C 23.902344 511.960938 30.1875 497.808594 40.515625 490.339844 C 41.355469 489.734375 42.230469 489.480469 43.117188 489.035156 C 42.210938 489.972656 41.324219 491.046875 40.484375 492.078125 C 33.078125 501.105469 27.949219 512.675781 23.453125 523.601562 C 20.652344 530.398438 18.042969 540.507812 15.269531 540.507812 L 10.472656 540.507812 C 13.097656 540.507812 15.515625 532.328125 18.171875 525.875 Z M 18.171875 525.875 " fill-opacity="1" fill-rule="nonzero"/></g><g clip-path="url(#b693d4c5a6)"><path fill="#2c333a" d="M 564.253906 563.761719 L 647.800781 563.761719 C 659.0625 563.761719 665.796875 555.902344 672.546875 543.171875 C 677.996094 549.695312 682.40625 554.351562 686.757812 554.375 C 697.703125 554.433594 707.179688 554.976562 715.4375 554.976562 C 721.363281 562.710938 727.09375 567.808594 734.203125 567.949219 C 762.539062 568.535156 797.996094 567.867188 798.339844 567.855469 C 832.089844 567.121094 852.324219 533.230469 871.902344 499.855469 C 888.824219 471 906.324219 441.679688 928.835938 441.679688 C 928.882812 441.679688 928.941406 441.679688 928.984375 441.679688 C 952.542969 441.679688 968.332031 467.097656 985.050781 496.832031 C 1004.292969 531.050781 1024.183594 563.761719 1061.230469 563.761719 L 1133.75 563.761719 L 1133.75 540.507812 L 1106.441406 540.507812 C 1086.53125 529.96875 1061.738281 488.1875 1043.496094 451.699219 C 1019.402344 403.488281 994.5 354.480469 952.78125 354.480469 C 952.695312 354.480469 952.609375 354.480469 952.527344 354.480469 C 943.59375 354.480469 935.355469 357.15625 927.65625 361.625 C 926.992188 362.003906 926.347656 362.484375 925.695312 362.902344 C 921.363281 363.460938 917.191406 364.410156 913.179688 366.101562 C 912.878906 366.222656 913.414062 365.984375 913.105469 366.113281 C 912.738281 365.960938 911.554688 365.160156 911.179688 365.015625 C 905.179688 362.597656 898.796875 360.292969 891.957031 360.292969 C 891.871094 360.292969 891.785156 360.292969 891.691406 360.292969 C 880.277344 360.292969 869.980469 365.414062 860.511719 372.328125 C 852.105469 378.460938 844.351562 387.335938 837.042969 397.140625 C 823.402344 415.410156 811.316406 438.875 799.402344 461.726562 C 782.765625 493.671875 765.679688 526.566406 744.953125 544.253906 C 744.523438 544.617188 744.085938 545.03125 743.644531 545.386719 C 741.339844 545.363281 739.035156 545.363281 736.78125 545.320312 C 733.488281 542.195312 727.386719 532.566406 723.226562 526 C 711.46875 507.429688 702.234375 492.683594 688.902344 493.375 C 678.652344 493.851562 671.34375 501.257812 665.128906 510.941406 C 665.019531 510.789062 664.914062 510.640625 664.800781 510.488281 C 652.816406 494.222656 639.949219 479.566406 627.316406 479.574219 C 626.957031 479.574219 626.601562 479.585938 626.238281 479.609375 C 624.765625 479.710938 623.355469 479.914062 621.996094 480.21875 C 621.035156 480.433594 620.105469 480.699219 619.199219 481.015625 C 618.183594 480.910156 617.160156 480.871094 616.140625 480.925781 C 594.152344 482.398438 584.234375 504.214844 576.261719 523.585938 C 573.257812 530.921875 570.175781 540.507812 566.960938 540.507812 L 564.253906 540.507812 Z M 930.945312 361.277344 C 937.695312 357.800781 945.023438 355.113281 952.695312 355.113281 C 993.484375 355.113281 1018.273438 403.8125 1042.160156 451.617188 C 1060.027344 487.378906 1078.375 523.070312 1103.675781 540.507812 L 1088.152344 540.507812 C 1086.882812 540.507812 1084.511719 540.816406 1083.265625 540.140625 C 1057.546875 526.226562 1040.152344 493.710938 1022.152344 458.050781 C 998.523438 411.253906 973.84375 363.109375 932.082031 363.109375 C 931.996094 363.109375 930.632812 363.015625 930.539062 363.015625 C 929.710938 363.015625 929.710938 362.957031 928.90625 363.015625 C 928.542969 363.03125 930.132812 361.695312 930.945312 361.277344 Z M 920.09375 368.832031 C 924.058594 367.617188 927.824219 366.109375 932.089844 366.109375 C 932.171875 366.109375 932.246094 366.109375 932.328125 366.109375 C 970.410156 366.109375 994 412.804688 1016.816406 457.988281 C 1033.414062 490.851562 1050.421875 523.070312 1073.542969 540.507812 L 1061.230469 540.507812 C 1037.585938 540.507812 1021.761719 514.664062 1005.019531 484.867188 C 995.105469 467.242188 985.023438 450.460938 972.523438 437.222656 C 971.914062 436.578125 971.269531 436.214844 970.640625 435.601562 C 970.128906 434.617188 969.625 433.734375 969.105469 432.761719 C 954.992188 406.285156 938.632812 381.863281 919.101562 369.832031 C 918.992188 369.769531 920.199219 368.890625 920.09375 368.832031 Z M 916.394531 371.910156 C 916.714844 372.089844 917.050781 372.230469 917.371094 372.414062 C 935.542969 383.066406 950.179688 404.511719 963.574219 428.9375 C 963.761719 429.277344 963.941406 429.617188 964.121094 429.957031 C 964.003906 429.863281 963.894531 430.421875 963.777344 430.320312 C 953.96875 422.519531 942.660156 418.429688 929.019531 418.429688 C 928.921875 418.429688 928.824219 418.429688 928.726562 418.429688 C 893.171875 418.429688 872.316406 453.773438 852.144531 488.164062 C 835.753906 516.117188 818.800781 544.828125 797.828125 545.28125 C 797.792969 545.289062 797.460938 545.128906 796.917969 545.152344 C 796.980469 545.117188 797.042969 545.003906 797.113281 544.960938 C 823.027344 529.917969 842.875 491.78125 862.214844 454.664062 C 878.445312 423.515625 895.039062 391.65625 915.253906 372.914062 C 915.632812 372.566406 916.015625 372.246094 916.394531 371.910156 Z M 914.0625 372.015625 C 913.597656 372.445312 913.128906 372.855469 912.664062 373.304688 C 892.964844 392.371094 876.761719 423.480469 860.890625 453.9375 C 841.402344 491.351562 821.371094 529.78125 795.339844 544.164062 C 794.753906 544.492188 794.160156 544.78125 793.570312 545.082031 C 791.972656 545.125 789.976562 545.171875 787.660156 545.207031 C 788.078125 544.914062 788.496094 544.71875 788.910156 544.410156 C 811.589844 527.703125 829.367188 493.949219 846.707031 461 C 866.574219 423.257812 887 384.460938 914.0625 372.015625 Z M 749.246094 544.5625 C 769.371094 526.085938 785.921875 494.332031 802.058594 463.355469 C 813.882812 440.65625 825.902344 417.585938 839.355469 399.527344 C 846.683594 389.703125 854.429688 381.769531 862.808594 375.773438 C 871.660156 369.457031 881.21875 366.109375 891.707031 366.109375 C 891.789062 366.109375 891.871094 366.109375 891.957031 366.109375 C 897.449219 366.109375 902.648438 366.605469 907.601562 368.3125 C 907.902344 368.414062 908.195312 368.351562 908.496094 368.460938 C 908.253906 368.582031 908.007812 368.582031 907.765625 368.71875 C 880.835938 383.59375 860.867188 421.386719 841.417969 458.332031 C 822.617188 494.054688 803.289062 530.691406 778.507812 543.992188 C 777.464844 544.550781 776.414062 544.980469 775.355469 545.449219 C 767.203125 545.53125 757.671875 545.558594 748.191406 545.492188 C 748.542969 545.183594 748.894531 544.878906 749.246094 544.5625 Z M 688.898438 517.046875 C 692.925781 520.964844 699.660156 531.585938 703.886719 538.269531 C 706.449219 542.328125 708.847656 546.089844 711.167969 549.523438 C 706.523438 549.523438 701.480469 549.511719 696.085938 549.492188 C 691.75 547.152344 686.304688 540.449219 680.402344 532.347656 C 680.1875 532.050781 679.964844 531.730469 679.746094 531.429688 C 682.847656 525.609375 686.445312 519.34375 688.898438 517.046875 Z M 676.007812 538.613281 C 676.859375 536.960938 677.867188 534.984375 678.96875 532.898438 C 679.148438 533.144531 679.332031 533.410156 679.511719 533.65625 C 684.621094 540.640625 689.28125 546.410156 693.382812 549.480469 C 691.25 549.472656 689.054688 549.460938 686.792969 549.449219 C 684.207031 549.4375 680.113281 545.234375 675.550781 539.515625 C 675.707031 539.207031 675.859375 538.921875 676.007812 538.613281 Z M 623.464844 481.460938 C 624.398438 481.292969 625.363281 481.171875 626.347656 481.101562 C 626.667969 481.085938 626.972656 481.074219 627.292969 481.074219 C 639.324219 481.074219 652.359375 496.113281 663.960938 511.882812 C 664.074219 512.027344 664.164062 512.175781 664.277344 512.3125 C 662.980469 514.40625 661.730469 516.585938 660.515625 518.824219 C 660.296875 518.511719 660.082031 518.207031 659.859375 517.894531 C 648.59375 502.035156 636.386719 486.089844 623.585938 481.9375 C 623.253906 481.828125 622.925781 481.753906 622.585938 481.660156 C 622.878906 481.601562 623.167969 481.519531 623.464844 481.460938 Z M 610.5 487.554688 C 610.90625 487.425781 611.3125 487.410156 611.726562 487.289062 C 613.253906 486.851562 614.859375 486.800781 616.542969 486.683594 C 629.09375 485.824219 644.246094 506.097656 656.78125 523.785156 C 656.984375 524.070312 657.1875 523.945312 657.382812 524.238281 C 656.804688 525.375 656.214844 524.730469 655.628906 525.871094 C 652.71875 531.5625 648.445312 540.507812 645.800781 540.507812 L 580.605469 540.507812 C 583.296875 540.507812 585.789062 530.695312 588.453125 524.230469 C 593.234375 512.617188 598.730469 499.734375 606.921875 490.792969 C 608.058594 489.535156 609.25 488.613281 610.5 487.554688 Z M 581.792969 525.875 C 587.523438 511.960938 593.808594 497.808594 604.136719 490.339844 C 604.980469 489.734375 605.851562 489.480469 606.738281 489.035156 C 605.832031 489.972656 604.945312 491.046875 604.109375 492.078125 C 596.699219 501.105469 591.574219 512.675781 587.074219 523.601562 C 584.273438 530.398438 581.664062 540.507812 578.894531 540.507812 L 574.09375 540.507812 C 576.71875 540.507812 579.136719 532.328125 581.792969 525.875 Z M 581.792969 525.875 " fill-opacity="1" fill-rule="nonzero"/></g><g clip-path="url(#61952344f0)"><path fill="#2c333a" d="M 1129.179688 563.761719 L 1212.726562 563.761719 C 1223.992188 563.761719 1230.726562 555.902344 1237.472656 543.171875 C 1242.921875 549.695312 1247.332031 554.351562 1251.6875 554.375 C 1262.628906 554.433594 1272.105469 554.976562 1280.363281 554.976562 C 1286.292969 562.710938 1292.023438 567.808594 1299.128906 567.949219 C 1327.464844 568.535156 1362.921875 567.867188 1363.265625 567.855469 C 1397.019531 567.121094 1417.253906 533.230469 1436.828125 499.855469 C 1453.753906 471 1471.25 441.679688 1493.761719 441.679688 C 1493.808594 441.679688 1493.867188 441.679688 1493.914062 441.679688 C 1517.472656 441.679688 1533.261719 467.097656 1549.980469 496.832031 C 1569.21875 531.050781 1589.113281 563.761719 1626.15625 563.761719 L 1698.675781 563.761719 L 1698.675781 540.507812 L 1671.367188 540.507812 C 1651.460938 529.96875 1626.664062 488.1875 1608.421875 451.699219 C 1584.328125 403.488281 1559.429688 354.480469 1517.710938 354.480469 C 1517.621094 354.480469 1517.535156 354.480469 1517.453125 354.480469 C 1508.523438 354.480469 1500.28125 357.15625 1492.582031 361.625 C 1491.917969 362.003906 1491.273438 362.484375 1490.625 362.902344 C 1486.289062 363.460938 1482.117188 364.410156 1478.105469 366.101562 C 1477.804688 366.222656 1478.339844 365.984375 1478.03125 366.113281 C 1477.664062 365.960938 1476.480469 365.160156 1476.109375 365.015625 C 1470.105469 362.597656 1463.722656 360.292969 1456.882812 360.292969 C 1456.796875 360.292969 1456.710938 360.292969 1456.617188 360.292969 C 1445.203125 360.292969 1434.90625 365.414062 1425.441406 372.328125 C 1417.03125 378.460938 1409.277344 387.335938 1401.96875 397.140625 C 1388.328125 415.410156 1376.242188 438.875 1364.328125 461.726562 C 1347.691406 493.671875 1330.609375 526.566406 1309.878906 544.253906 C 1309.449219 544.617188 1309.011719 545.03125 1308.570312 545.386719 C 1306.265625 545.363281 1303.964844 545.363281 1301.707031 545.320312 C 1298.414062 542.195312 1292.3125 532.566406 1288.152344 526 C 1276.394531 507.429688 1267.160156 492.683594 1253.832031 493.375 C 1243.578125 493.851562 1236.269531 501.257812 1230.058594 510.941406 C 1229.945312 510.789062 1229.84375 510.640625 1229.726562 510.488281 C 1217.742188 494.222656 1204.878906 479.566406 1192.242188 479.574219 C 1191.882812 479.574219 1191.527344 479.585938 1191.164062 479.609375 C 1189.691406 479.710938 1188.28125 479.914062 1186.921875 480.21875 C 1185.960938 480.433594 1185.03125 480.699219 1184.125 481.015625 C 1183.109375 480.910156 1182.085938 480.871094 1181.070312 480.925781 C 1159.078125 482.398438 1149.160156 504.214844 1141.1875 523.585938 C 1138.183594 530.921875 1135.101562 540.507812 1131.890625 540.507812 L 1129.179688 540.507812 Z M 1495.871094 361.277344 C 1502.625 357.800781 1509.953125 355.113281 1517.621094 355.113281 C 1558.410156 355.113281 1583.203125 403.8125 1607.085938 451.617188 C 1624.953125 487.378906 1643.300781 523.070312 1668.601562 540.507812 L 1653.082031 540.507812 C 1651.808594 540.507812 1649.4375 540.816406 1648.195312 540.140625 C 1622.472656 526.226562 1605.082031 493.710938 1587.078125 458.050781 C 1563.449219 411.253906 1538.769531 363.109375 1497.011719 363.109375 C 1496.921875 363.109375 1495.558594 363.015625 1495.464844 363.015625 C 1494.640625 363.015625 1494.640625 362.957031 1493.832031 363.015625 C 1493.472656 363.03125 1495.058594 361.695312 1495.871094 361.277344 Z M 1485.023438 368.832031 C 1488.984375 367.617188 1492.75 366.109375 1497.015625 366.109375 C 1497.097656 366.109375 1497.171875 366.109375 1497.253906 366.109375 C 1535.335938 366.109375 1558.929688 412.804688 1581.742188 457.988281 C 1598.339844 490.851562 1615.347656 523.070312 1638.472656 540.507812 L 1626.15625 540.507812 C 1602.511719 540.507812 1586.6875 514.664062 1569.945312 484.867188 C 1560.03125 467.242188 1549.949219 450.460938 1537.449219 437.222656 C 1536.839844 436.578125 1536.195312 436.214844 1535.566406 435.601562 C 1535.054688 434.617188 1534.550781 433.734375 1534.035156 432.761719 C 1519.917969 406.285156 1503.558594 381.863281 1484.027344 369.832031 C 1483.917969 369.769531 1485.125 368.890625 1485.023438 368.832031 Z M 1481.320312 371.910156 C 1481.640625 372.089844 1481.976562 372.230469 1482.296875 372.414062 C 1500.46875 383.066406 1515.105469 404.511719 1528.5 428.9375 C 1528.6875 429.277344 1528.867188 429.617188 1529.046875 429.957031 C 1528.929688 429.863281 1528.820312 430.421875 1528.703125 430.320312 C 1518.894531 422.519531 1507.585938 418.429688 1493.949219 418.429688 C 1493.847656 418.429688 1493.75 418.429688 1493.652344 418.429688 C 1458.097656 418.429688 1437.242188 453.773438 1417.070312 488.164062 C 1400.679688 516.117188 1383.726562 544.828125 1362.753906 545.28125 C 1362.71875 545.289062 1362.390625 545.128906 1361.84375 545.152344 C 1361.90625 545.117188 1361.96875 545.003906 1362.039062 544.960938 C 1387.953125 529.917969 1407.804688 491.78125 1427.144531 454.664062 C 1443.375 423.515625 1459.964844 391.65625 1480.179688 372.914062 C 1480.558594 372.566406 1480.941406 372.246094 1481.320312 371.910156 Z M 1478.988281 372.015625 C 1478.523438 372.445312 1478.054688 372.855469 1477.589844 373.304688 C 1457.890625 392.371094 1441.6875 423.480469 1425.816406 453.9375 C 1406.328125 491.351562 1386.296875 529.78125 1360.269531 544.164062 C 1359.679688 544.492188 1359.089844 544.78125 1358.496094 545.082031 C 1356.898438 545.125 1354.902344 545.171875 1352.585938 545.207031 C 1353.003906 544.914062 1353.421875 544.71875 1353.835938 544.410156 C 1376.515625 527.703125 1394.292969 493.949219 1411.632812 461 C 1431.5 423.257812 1451.925781 384.460938 1478.988281 372.015625 Z M 1314.171875 544.5625 C 1334.296875 526.085938 1350.847656 494.332031 1366.984375 463.355469 C 1378.8125 440.65625 1390.828125 417.585938 1404.28125 399.527344 C 1411.609375 389.703125 1419.355469 381.769531 1427.734375 375.773438 C 1436.585938 369.457031 1446.144531 366.109375 1456.632812 366.109375 C 1456.714844 366.109375 1456.796875 366.109375 1456.882812 366.109375 C 1462.375 366.109375 1467.578125 366.605469 1472.527344 368.3125 C 1472.828125 368.414062 1473.121094 368.351562 1473.421875 368.460938 C 1473.179688 368.582031 1472.933594 368.582031 1472.691406 368.71875 C 1445.761719 383.59375 1425.792969 421.386719 1406.34375 458.332031 C 1387.546875 494.054688 1368.21875 530.691406 1343.433594 543.992188 C 1342.394531 544.550781 1341.339844 544.980469 1340.285156 545.449219 C 1332.128906 545.53125 1322.601562 545.558594 1313.117188 545.492188 C 1313.46875 545.183594 1313.820312 544.878906 1314.171875 544.5625 Z M 1253.824219 517.046875 C 1257.851562 520.964844 1264.585938 531.585938 1268.8125 538.269531 C 1271.375 542.328125 1273.773438 546.089844 1276.09375 549.523438 C 1271.449219 549.523438 1266.40625 549.511719 1261.011719 549.492188 C 1256.679688 547.152344 1251.234375 540.449219 1245.328125 532.347656 C 1245.113281 532.050781 1244.894531 531.730469 1244.671875 531.429688 C 1247.777344 525.609375 1251.371094 519.34375 1253.824219 517.046875 Z M 1240.9375 538.613281 C 1241.785156 536.960938 1242.796875 534.984375 1243.894531 532.898438 C 1244.074219 533.144531 1244.257812 533.410156 1244.441406 533.65625 C 1249.546875 540.640625 1254.207031 546.410156 1258.3125 549.480469 C 1256.179688 549.472656 1253.980469 549.460938 1251.722656 549.449219 C 1249.136719 549.4375 1245.039062 545.234375 1240.476562 539.515625 C 1240.632812 539.207031 1240.785156 538.921875 1240.9375 538.613281 Z M 1188.390625 481.460938 C 1189.328125 481.292969 1190.292969 481.171875 1191.273438 481.101562 C 1191.59375 481.085938 1191.902344 481.074219 1192.222656 481.074219 C 1204.25 481.074219 1217.285156 496.113281 1228.890625 511.882812 C 1229 512.027344 1229.09375 512.175781 1229.203125 512.3125 C 1227.90625 514.40625 1226.65625 516.585938 1225.441406 518.824219 C 1225.222656 518.511719 1225.007812 518.207031 1224.785156 517.894531 C 1213.519531 502.035156 1201.316406 486.089844 1188.511719 481.9375 C 1188.183594 481.828125 1187.851562 481.753906 1187.515625 481.660156 C 1187.804688 481.601562 1188.09375 481.519531 1188.390625 481.460938 Z M 1175.425781 487.554688 C 1175.832031 487.425781 1176.238281 487.410156 1176.652344 487.289062 C 1178.179688 486.851562 1179.785156 486.800781 1181.46875 486.683594 C 1194.023438 485.824219 1209.171875 506.097656 1221.707031 523.785156 C 1221.910156 524.070312 1222.113281 523.945312 1222.3125 524.238281 C 1221.730469 525.375 1221.144531 524.730469 1220.554688 525.871094 C 1217.644531 531.5625 1213.375 540.507812 1210.730469 540.507812 L 1145.535156 540.507812 C 1148.222656 540.507812 1150.71875 530.695312 1153.378906 524.230469 C 1158.160156 512.617188 1163.660156 499.734375 1171.847656 490.792969 C 1172.984375 489.535156 1174.175781 488.613281 1175.425781 487.554688 Z M 1146.71875 525.875 C 1152.449219 511.960938 1158.738281 497.808594 1169.0625 490.339844 C 1169.90625 489.734375 1170.777344 489.480469 1171.667969 489.035156 C 1170.761719 489.972656 1169.871094 491.046875 1169.035156 492.078125 C 1161.625 501.105469 1156.5 512.675781 1152 523.601562 C 1149.199219 530.398438 1146.589844 540.507812 1143.820312 540.507812 L 1139.019531 540.507812 C 1141.644531 540.507812 1144.0625 532.328125 1146.71875 525.875 Z M 1146.71875 525.875 " fill-opacity="1" fill-rule="nonzero"/></g></svg>