<svg xmlns="http://www.w3.org/2000/svg" xmlns:xlink="http://www.w3.org/1999/xlink" width="1900" zoomAndPan="magnify" viewBox="0 0 1425 562.499983" height="750" preserveAspectRatio="xMidYMid meet" version="1.0"><defs><filter x="0%" y="0%" width="100%" height="100%" id="0dd5c37231"><feColorMatrix values="0 0 0 0 1 0 0 0 0 1 0 0 0 0 1 0 0 0 1 0" color-interpolation-filters="sRGB"/></filter><clipPath id="0ea379357a"><path d="M 0.632812 0 L 1424.367188 0 L 1424.367188 562 L 0.632812 562 Z M 0.632812 0 " clip-rule="nonzero"/></clipPath><clipPath id="0b5cf03209"><path d="M 0.632812 0 L 571 0 L 571 210 L 0.632812 210 Z M 0.632812 0 " clip-rule="nonzero"/></clipPath><mask id="aabc5dd748"><g filter="url(#0dd5c37231)"><rect x="-142.5" width="1710" fill="#000000" y="-56.249998" height="674.99998" fill-opacity="0.75"/></g></mask><clipPath id="4605455431"><path d="M 0.632812 0 L 570.125 0 L 570.125 209 L 0.632812 209 Z M 0.632812 0 " clip-rule="nonzero"/></clipPath><clipPath id="95000904ac"><rect x="0" width="571" y="0" height="210"/></clipPath><mask id="43e460722b"><g filter="url(#0dd5c37231)"><rect x="-142.5" width="1710" fill="#000000" y="-56.249998" height="674.99998" fill-opacity="0.75"/></g></mask><clipPath id="83e956fa22"><path d="M 0.125 0 L 569.621094 0 L 569.621094 209 L 0.125 209 Z M 0.125 0 " clip-rule="nonzero"/></clipPath><clipPath id="a7b8a383be"><rect x="0" width="570" y="0" height="210"/></clipPath><clipPath id="bf91017ef7"><path d="M 1139 0 L 1424.367188 0 L 1424.367188 210 L 1139 210 Z M 1139 0 " clip-rule="nonzero"/></clipPath><mask id="319c3988d0"><g filter="url(#0dd5c37231)"><rect x="-142.5" width="1710" fill="#000000" y="-56.249998" height="674.99998" fill-opacity="0.75"/></g></mask><clipPath id="e72ef0ff32"><path d="M 0.621094 0 L 285.367188 0 L 285.367188 209 L 0.621094 209 Z M 0.621094 0 " clip-rule="nonzero"/></clipPath><clipPath id="a3c8f7dffa"><rect x="0" width="286" y="0" height="210"/></clipPath><clipPath id="4758b537d2"><path d="M 0.632812 353 L 571 353 L 571 562 L 0.632812 562 Z M 0.632812 353 " clip-rule="nonzero"/></clipPath><mask id="91c6e247f3"><g filter="url(#0dd5c37231)"><rect x="-142.5" width="1710" fill="#000000" y="-56.249998" height="674.99998" fill-opacity="0.75"/></g></mask><clipPath id="c33a871924"><path d="M 0.632812 1 L 570.125 1 L 570.125 209 L 0.632812 209 Z M 0.632812 1 " clip-rule="nonzero"/></clipPath><clipPath id="04d9f7b621"><rect x="0" width="571" y="0" height="209"/></clipPath><mask id="d08f390637"><g filter="url(#0dd5c37231)"><rect x="-142.5" width="1710" fill="#000000" y="-56.249998" height="674.99998" fill-opacity="0.75"/></g></mask><clipPath id="17e1af0d2b"><path d="M 0.125 1 L 569.621094 1 L 569.621094 209 L 0.125 209 Z M 0.125 1 " clip-rule="nonzero"/></clipPath><clipPath id="a8085f5f01"><rect x="0" width="570" y="0" height="209"/></clipPath><clipPath id="5641b339f2"><path d="M 1139 353 L 1424.367188 353 L 1424.367188 562 L 1139 562 Z M 1139 353 " clip-rule="nonzero"/></clipPath><mask id="6768186595"><g filter="url(#0dd5c37231)"><rect x="-142.5" width="1710" fill="#000000" y="-56.249998" height="674.99998" fill-opacity="0.75"/></g></mask><clipPath id="9e3034ecce"><path d="M 0.621094 1 L 285.367188 1 L 285.367188 209 L 0.621094 209 Z M 0.621094 1 " clip-rule="nonzero"/></clipPath><clipPath id="7cb228a73d"><rect x="0" width="286" y="0" height="209"/></clipPath></defs><g clip-path="url(#0ea379357a)"><path fill="#ffffff" d="M 0.632812 0 L 1424.367188 0 L 1424.367188 569.492188 L 0.632812 569.492188 Z M 0.632812 0 " fill-opacity="1" fill-rule="nonzero"/><path fill="#ffffff" d="M 0.632812 0 L 1424.367188 0 L 1424.367188 562 L 0.632812 562 Z M 0.632812 0 " fill-opacity="1" fill-rule="nonzero"/><path fill="#ffde59" d="M 0.632812 0 L 1424.367188 0 L 1424.367188 562 L 0.632812 562 Z M 0.632812 0 " fill-opacity="1" fill-rule="nonzero"/></g><g clip-path="url(#0b5cf03209)"><g mask="url(#aabc5dd748)"><g transform="matrix(1, 0, 0, 1, 0.000000000000000222, 0)"><g clip-path="url(#95000904ac)"><g clip-path="url(#4605455431)"><path fill="#004aad" d="M 570.125 -0.503906 L 486.578125 -0.503906 C 475.316406 -0.503906 468.582031 7.355469 461.835938 20.085938 C 456.382812 13.5625 451.972656 8.90625 447.621094 8.882812 C 436.679688 8.824219 427.199219 8.277344 418.945312 8.277344 C 413.015625 0.546875 407.285156 -4.550781 400.179688 -4.691406 C 371.84375 -5.277344 336.382812 -4.609375 336.042969 -4.597656 C 302.289062 -3.867188 282.054688 30.027344 262.476562 63.402344 C 245.554688 92.257812 228.058594 121.574219 205.546875 121.574219 C 205.5 121.574219 205.441406 121.574219 205.394531 121.574219 C 181.835938 121.574219 166.046875 96.160156 149.328125 66.425781 C 130.089844 32.207031 110.195312 -0.503906 73.148438 -0.503906 L 0.632812 -0.503906 L 0.632812 22.75 L 27.9375 22.75 C 47.847656 33.289062 72.644531 75.070312 90.886719 111.558594 C 114.980469 159.769531 139.878906 208.777344 181.597656 208.777344 C 181.683594 208.777344 181.773438 208.777344 181.855469 208.777344 C 190.785156 208.777344 199.027344 206.101562 206.726562 201.632812 C 207.386719 201.253906 208.03125 200.769531 208.683594 200.351562 C 213.019531 199.792969 217.191406 198.847656 221.203125 197.15625 C 221.503906 197.03125 220.96875 197.273438 221.277344 197.144531 C 221.644531 197.292969 222.828125 198.097656 223.199219 198.242188 C 229.203125 200.660156 235.582031 202.960938 242.421875 202.960938 C 242.511719 202.960938 242.597656 202.960938 242.691406 202.960938 C 254.105469 202.960938 264.402344 197.839844 273.867188 190.929688 C 282.277344 184.796875 290.027344 175.917969 297.339844 166.117188 C 310.976562 147.847656 323.066406 124.382812 334.976562 101.53125 C 351.617188 69.585938 368.699219 36.6875 389.429688 19.003906 C 389.859375 18.636719 390.292969 18.226562 390.734375 17.871094 C 393.042969 17.894531 395.34375 17.894531 397.597656 17.933594 C 400.894531 21.0625 406.996094 30.6875 411.15625 37.257812 C 422.914062 55.828125 432.144531 70.574219 445.476562 69.882812 C 455.726562 69.40625 463.039062 62 469.25 52.316406 C 469.359375 52.464844 469.464844 52.617188 469.582031 52.769531 C 481.566406 69.035156 494.429688 83.691406 507.0625 83.683594 C 507.425781 83.683594 507.777344 83.671875 508.144531 83.648438 C 509.613281 83.542969 511.027344 83.339844 512.386719 83.039062 C 513.347656 82.824219 514.277344 82.554688 515.183594 82.242188 C 516.199219 82.347656 517.222656 82.386719 518.238281 82.328125 C 540.226562 80.859375 550.148438 59.042969 558.121094 39.671875 C 561.125 32.335938 564.203125 22.75 567.417969 22.75 L 570.125 22.75 Z M 203.4375 201.980469 C 196.683594 205.457031 189.355469 208.140625 181.683594 208.140625 C 140.898438 208.140625 116.105469 159.445312 92.222656 111.640625 C 74.351562 75.875 56.007812 40.1875 30.707031 22.75 L 46.226562 22.75 C 47.5 22.75 49.871094 22.441406 51.113281 23.113281 C 76.835938 37.03125 94.226562 69.546875 112.230469 105.203125 C 135.859375 152.003906 160.539062 200.148438 202.296875 200.148438 C 202.382812 200.148438 203.75 200.242188 203.84375 200.242188 C 204.667969 200.242188 204.667969 200.300781 205.476562 200.242188 C 205.835938 200.226562 204.25 201.5625 203.4375 201.980469 Z M 214.285156 194.421875 C 210.324219 195.636719 206.558594 197.148438 202.292969 197.148438 C 202.210938 197.148438 202.136719 197.148438 202.054688 197.148438 C 163.972656 197.148438 140.378906 150.449219 117.566406 105.269531 C 100.96875 72.40625 83.960938 40.1875 60.835938 22.75 L 73.148438 22.75 C 96.796875 22.75 112.621094 48.59375 129.363281 78.386719 C 139.277344 96.015625 149.359375 112.796875 161.859375 126.035156 C 162.46875 126.679688 163.113281 127.039062 163.742188 127.65625 C 164.25 128.640625 164.757812 129.523438 165.273438 130.492188 C 179.390625 156.972656 195.75 181.394531 215.28125 193.421875 C 215.390625 193.488281 214.179688 194.363281 214.285156 194.421875 Z M 217.988281 191.347656 C 217.667969 191.167969 217.332031 191.027344 217.011719 190.84375 C 198.839844 180.191406 184.203125 158.746094 170.808594 134.320312 C 170.621094 133.980469 170.441406 133.636719 170.261719 133.300781 C 170.375 133.394531 170.488281 132.835938 170.601562 132.933594 C 180.414062 140.738281 191.722656 144.828125 205.359375 144.828125 C 205.457031 144.828125 205.558594 144.828125 205.65625 144.828125 C 241.210938 144.828125 262.066406 109.484375 282.234375 75.089844 C 298.628906 47.140625 315.582031 18.429688 336.554688 17.976562 C 336.585938 17.96875 336.917969 18.125 337.464844 18.101562 C 337.402344 18.136719 337.335938 18.253906 337.265625 18.296875 C 311.355469 33.339844 291.503906 71.476562 272.164062 108.59375 C 255.933594 139.742188 239.34375 171.601562 219.125 190.34375 C 218.75 190.691406 218.367188 191.011719 217.988281 191.347656 Z M 220.316406 191.242188 C 220.78125 190.8125 221.253906 190.398438 221.71875 189.953125 C 241.417969 170.882812 257.621094 139.777344 273.488281 109.320312 C 292.980469 71.90625 313.011719 33.472656 339.039062 19.089844 C 339.625 18.765625 340.21875 18.476562 340.8125 18.171875 C 342.410156 18.132812 344.402344 18.085938 346.722656 18.050781 C 346.304688 18.339844 345.886719 18.539062 345.472656 18.847656 C 322.792969 35.554688 305.015625 69.308594 287.675781 102.257812 C 267.808594 140 247.378906 178.796875 220.316406 191.242188 Z M 385.132812 18.695312 C 365.011719 37.171875 348.460938 68.921875 332.320312 99.902344 C 320.496094 122.597656 308.480469 145.671875 295.027344 163.726562 C 287.699219 173.554688 279.953125 181.488281 271.574219 187.480469 C 262.722656 193.800781 253.164062 197.148438 242.671875 197.148438 C 242.59375 197.148438 242.511719 197.148438 242.421875 197.148438 C 236.933594 197.148438 231.730469 196.648438 226.78125 194.945312 C 226.476562 194.839844 226.1875 194.90625 225.886719 194.796875 C 226.128906 194.671875 226.375 194.671875 226.617188 194.539062 C 253.546875 179.664062 273.511719 141.871094 292.964844 104.925781 C 311.761719 69.203125 331.089844 32.566406 355.875 19.265625 C 356.914062 18.707031 357.96875 18.277344 359.023438 17.808594 C 367.175781 17.726562 376.707031 17.695312 386.191406 17.765625 C 385.835938 18.074219 385.488281 18.375 385.132812 18.695312 Z M 445.484375 46.210938 C 441.457031 42.292969 434.722656 31.671875 430.496094 24.984375 C 427.933594 20.929688 425.535156 17.167969 423.214844 13.730469 C 427.859375 13.730469 432.902344 13.742188 438.292969 13.765625 C 442.628906 16.101562 448.074219 22.804688 453.980469 30.910156 C 454.195312 31.207031 454.414062 31.527344 454.636719 31.828125 C 451.53125 37.648438 447.933594 43.914062 445.484375 46.210938 Z M 458.371094 24.644531 C 457.523438 26.292969 456.511719 28.269531 455.414062 30.359375 C 455.234375 30.113281 455.046875 29.847656 454.867188 29.601562 C 449.761719 22.613281 445.097656 16.847656 440.996094 13.777344 C 443.128906 13.785156 445.324219 13.796875 447.585938 13.808594 C 450.171875 13.820312 454.269531 18.023438 458.832031 23.742188 C 458.675781 24.050781 458.523438 24.335938 458.371094 24.644531 Z M 510.917969 81.792969 C 509.980469 81.964844 509.015625 82.085938 508.035156 82.15625 C 507.714844 82.171875 507.40625 82.183594 507.085938 82.183594 C 495.058594 82.183594 482.023438 67.144531 470.417969 51.375 C 470.308594 51.226562 470.214844 51.082031 470.105469 50.941406 C 471.402344 48.851562 472.648438 46.671875 473.863281 44.433594 C 474.085938 44.746094 474.300781 45.046875 474.519531 45.363281 C 485.789062 61.222656 497.992188 77.167969 510.792969 81.316406 C 511.125 81.429688 511.457031 81.503906 511.792969 81.597656 C 511.503906 81.65625 511.214844 81.738281 510.917969 81.792969 Z M 523.882812 75.703125 C 523.472656 75.832031 523.066406 75.847656 522.65625 75.96875 C 521.125 76.40625 519.523438 76.457031 517.835938 76.574219 C 505.285156 77.433594 490.136719 57.15625 477.601562 39.472656 C 477.398438 39.1875 477.195312 39.308594 476.996094 39.019531 C 477.578125 37.878906 478.164062 38.527344 478.75 37.386719 C 481.664062 31.695312 485.933594 22.75 488.578125 22.75 L 553.773438 22.75 C 551.082031 22.75 548.589844 32.5625 545.929688 39.027344 C 541.144531 50.640625 535.648438 63.523438 527.460938 72.464844 C 526.320312 73.71875 525.128906 74.644531 523.882812 75.703125 Z M 552.589844 37.378906 C 546.859375 51.296875 540.570312 65.449219 530.246094 72.917969 C 529.402344 73.523438 528.53125 73.777344 527.640625 74.21875 C 528.546875 73.285156 529.4375 72.207031 530.273438 71.179688 C 537.683594 62.152344 542.808594 50.582031 547.304688 39.652344 C 550.105469 32.859375 552.714844 22.75 555.488281 22.75 L 560.289062 22.75 C 557.660156 22.75 555.246094 30.925781 552.589844 37.378906 Z M 552.589844 37.378906 " fill-opacity="1" fill-rule="nonzero"/></g></g></g></g></g><g mask="url(#43e460722b)"><g transform="matrix(1, 0, 0, 1, 570, 0)"><g clip-path="url(#a7b8a383be)"><g clip-path="url(#83e956fa22)"><path fill="#004aad" d="M 569.621094 -0.503906 L 486.074219 -0.503906 C 474.8125 -0.503906 468.074219 7.355469 461.328125 20.085938 C 455.878906 13.5625 451.46875 8.90625 447.113281 8.882812 C 436.171875 8.824219 426.695312 8.277344 418.4375 8.277344 C 412.511719 0.546875 406.78125 -4.550781 399.671875 -4.691406 C 371.335938 -5.277344 335.878906 -4.609375 335.535156 -4.597656 C 301.785156 -3.867188 281.550781 30.027344 261.972656 63.402344 C 245.050781 92.257812 227.550781 121.574219 205.039062 121.574219 C 204.992188 121.574219 204.933594 121.574219 204.886719 121.574219 C 181.332031 121.574219 165.542969 96.160156 148.824219 66.425781 C 129.582031 32.207031 109.691406 -0.503906 72.644531 -0.503906 L 0.125 -0.503906 L 0.125 22.75 L 27.433594 22.75 C 47.34375 33.289062 72.136719 75.070312 90.378906 111.558594 C 114.472656 159.769531 139.375 208.777344 181.09375 208.777344 C 181.179688 208.777344 181.265625 208.777344 181.347656 208.777344 C 190.28125 208.777344 198.519531 206.101562 206.21875 201.632812 C 206.882812 201.253906 207.527344 200.769531 208.175781 200.351562 C 212.511719 199.792969 216.683594 198.847656 220.695312 197.15625 C 220.996094 197.03125 220.460938 197.273438 220.769531 197.144531 C 221.136719 197.292969 222.320312 198.097656 222.695312 198.242188 C 228.695312 200.660156 235.078125 202.960938 241.917969 202.960938 C 242.003906 202.960938 242.089844 202.960938 242.183594 202.960938 C 253.597656 202.960938 263.894531 197.839844 273.363281 190.929688 C 281.769531 184.796875 289.523438 175.917969 296.832031 166.117188 C 310.472656 147.847656 322.558594 124.382812 334.472656 101.53125 C 351.109375 69.585938 368.195312 36.6875 388.921875 19.003906 C 389.351562 18.636719 389.789062 18.226562 390.230469 17.871094 C 392.535156 17.894531 394.839844 17.894531 397.09375 17.933594 C 400.386719 21.0625 406.488281 30.6875 410.648438 37.257812 C 422.40625 55.828125 431.640625 70.574219 444.972656 69.882812 C 455.222656 69.40625 462.53125 62 468.746094 52.316406 C 468.855469 52.464844 468.960938 52.617188 469.074219 52.769531 C 481.058594 69.035156 493.925781 83.691406 506.558594 83.683594 C 506.917969 83.683594 507.273438 83.671875 507.636719 83.648438 C 509.109375 83.542969 510.519531 83.339844 511.878906 83.039062 C 512.839844 82.824219 513.769531 82.554688 514.675781 82.242188 C 515.691406 82.347656 516.714844 82.386719 517.734375 82.328125 C 539.722656 80.859375 549.640625 59.042969 557.613281 39.671875 C 560.617188 32.335938 563.699219 22.75 566.914062 22.75 L 569.621094 22.75 Z M 202.929688 201.980469 C 196.175781 205.457031 188.851562 208.140625 181.179688 208.140625 C 140.390625 208.140625 115.601562 159.445312 91.714844 111.640625 C 73.847656 75.875 55.5 40.1875 30.199219 22.75 L 45.722656 22.75 C 46.992188 22.75 49.363281 22.441406 50.609375 23.113281 C 76.328125 37.03125 93.722656 69.546875 111.722656 105.203125 C 135.351562 152.003906 160.03125 200.148438 201.792969 200.148438 C 201.878906 200.148438 203.242188 200.242188 203.335938 200.242188 C 204.164062 200.242188 204.164062 200.300781 204.96875 200.242188 C 205.332031 200.226562 203.742188 201.5625 202.929688 201.980469 Z M 213.78125 194.421875 C 209.816406 195.636719 206.050781 197.148438 201.785156 197.148438 C 201.703125 197.148438 201.628906 197.148438 201.546875 197.148438 C 163.464844 197.148438 139.875 150.449219 117.058594 105.269531 C 100.460938 72.40625 83.453125 40.1875 60.332031 22.75 L 72.644531 22.75 C 96.289062 22.75 112.113281 48.59375 128.855469 78.386719 C 138.769531 96.015625 148.851562 112.796875 161.351562 126.035156 C 161.960938 126.679688 162.605469 127.039062 163.234375 127.65625 C 163.746094 128.640625 164.25 129.523438 164.769531 130.492188 C 178.882812 156.972656 195.242188 181.394531 214.773438 193.421875 C 214.882812 193.488281 213.675781 194.363281 213.78125 194.421875 Z M 217.480469 191.347656 C 217.160156 191.167969 216.824219 191.027344 216.503906 190.84375 C 198.332031 180.191406 183.695312 158.746094 170.300781 134.320312 C 170.113281 133.980469 169.933594 133.636719 169.753906 133.300781 C 169.871094 133.394531 169.980469 132.835938 170.097656 132.933594 C 179.90625 140.738281 191.214844 144.828125 204.855469 144.828125 C 204.953125 144.828125 205.050781 144.828125 205.148438 144.828125 C 240.703125 144.828125 261.558594 109.484375 281.730469 75.089844 C 298.121094 47.140625 315.074219 18.429688 336.046875 17.976562 C 336.082031 17.96875 336.414062 18.125 336.957031 18.101562 C 336.894531 18.136719 336.832031 18.253906 336.761719 18.296875 C 310.847656 33.339844 291 71.476562 271.660156 108.59375 C 255.429688 139.742188 238.835938 171.601562 218.621094 190.34375 C 218.242188 190.691406 217.859375 191.011719 217.480469 191.347656 Z M 219.8125 191.242188 C 220.277344 190.8125 220.746094 190.398438 221.210938 189.953125 C 240.910156 170.882812 257.113281 139.777344 272.984375 109.320312 C 292.472656 71.90625 312.503906 33.472656 338.535156 19.089844 C 339.121094 18.765625 339.714844 18.476562 340.304688 18.171875 C 341.902344 18.132812 343.898438 18.085938 346.214844 18.050781 C 345.796875 18.339844 345.378906 18.539062 344.964844 18.847656 C 322.285156 35.554688 304.507812 69.308594 287.167969 102.257812 C 267.300781 140 246.875 178.796875 219.8125 191.242188 Z M 384.628906 18.695312 C 364.503906 37.171875 347.953125 68.921875 331.816406 99.902344 C 319.992188 122.597656 307.972656 145.671875 294.519531 163.726562 C 287.191406 173.554688 279.445312 181.488281 271.066406 187.480469 C 262.214844 193.800781 252.65625 197.148438 242.167969 197.148438 C 242.085938 197.148438 242.003906 197.148438 241.917969 197.148438 C 236.425781 197.148438 231.226562 196.648438 226.273438 194.945312 C 225.972656 194.839844 225.679688 194.90625 225.378906 194.796875 C 225.621094 194.671875 225.867188 194.671875 226.109375 194.539062 C 253.039062 179.664062 273.007812 141.871094 292.457031 104.925781 C 311.257812 69.203125 330.585938 32.566406 355.367188 19.265625 C 356.410156 18.707031 357.460938 18.277344 358.519531 17.808594 C 366.671875 17.726562 376.203125 17.695312 385.683594 17.765625 C 385.332031 18.074219 384.980469 18.375 384.628906 18.695312 Z M 444.976562 46.210938 C 440.949219 42.292969 434.214844 31.671875 429.988281 24.984375 C 427.425781 20.929688 425.027344 17.167969 422.707031 13.730469 C 427.351562 13.730469 432.394531 13.742188 437.789062 13.765625 C 442.125 16.101562 447.570312 22.804688 453.472656 30.910156 C 453.6875 31.207031 453.910156 31.527344 454.128906 31.828125 C 451.027344 37.648438 447.429688 43.914062 444.976562 46.210938 Z M 457.867188 24.644531 C 457.015625 26.292969 456.007812 28.269531 454.90625 30.359375 C 454.726562 30.113281 454.542969 29.847656 454.363281 29.601562 C 449.253906 22.613281 444.59375 16.847656 440.492188 13.777344 C 442.625 13.785156 444.820312 13.796875 447.082031 13.808594 C 449.667969 13.820312 453.761719 18.023438 458.324219 23.742188 C 458.167969 24.050781 458.015625 24.335938 457.867188 24.644531 Z M 510.410156 81.792969 C 509.476562 81.964844 508.511719 82.085938 507.527344 82.15625 C 507.207031 82.171875 506.902344 82.183594 506.582031 82.183594 C 494.550781 82.183594 481.515625 67.144531 469.914062 51.375 C 469.800781 51.226562 469.707031 51.082031 469.597656 50.941406 C 470.894531 48.851562 472.144531 46.671875 473.359375 44.433594 C 473.578125 44.746094 473.792969 45.046875 474.015625 45.363281 C 485.28125 61.222656 497.488281 77.167969 510.289062 81.316406 C 510.621094 81.429688 510.949219 81.503906 511.289062 81.597656 C 510.996094 81.65625 510.707031 81.738281 510.410156 81.792969 Z M 523.375 75.703125 C 522.96875 75.832031 522.5625 75.847656 522.148438 75.96875 C 520.621094 76.40625 519.015625 76.457031 517.332031 76.574219 C 504.78125 77.433594 489.628906 57.15625 477.09375 39.472656 C 476.890625 39.1875 476.6875 39.308594 476.492188 39.019531 C 477.070312 37.878906 477.660156 38.527344 478.246094 37.386719 C 481.15625 31.695312 485.429688 22.75 488.074219 22.75 L 553.269531 22.75 C 550.578125 22.75 548.085938 32.5625 545.421875 39.027344 C 540.640625 50.640625 535.144531 63.523438 526.953125 72.464844 C 525.816406 73.71875 524.625 74.644531 523.375 75.703125 Z M 552.082031 37.378906 C 546.351562 51.296875 540.066406 65.449219 529.738281 72.917969 C 528.894531 73.523438 528.023438 73.777344 527.136719 74.21875 C 528.042969 73.285156 528.929688 72.207031 529.765625 71.179688 C 537.175781 62.152344 542.300781 50.582031 546.800781 39.652344 C 549.601562 32.859375 552.210938 22.75 554.980469 22.75 L 559.78125 22.75 C 557.15625 22.75 554.738281 30.925781 552.082031 37.378906 Z M 552.082031 37.378906 " fill-opacity="1" fill-rule="nonzero"/></g></g></g></g><g clip-path="url(#bf91017ef7)"><g mask="url(#319c3988d0)"><g transform="matrix(1, 0, 0, 1, 1139, 0)"><g clip-path="url(#a3c8f7dffa)"><g clip-path="url(#e72ef0ff32)"><path fill="#004aad" d="M 570.113281 -0.503906 L 486.566406 -0.503906 C 475.304688 -0.503906 468.570312 7.355469 461.824219 20.085938 C 456.371094 13.5625 451.960938 8.90625 447.609375 8.882812 C 436.667969 8.824219 427.1875 8.277344 418.929688 8.277344 C 413.003906 0.546875 407.273438 -4.550781 400.167969 -4.691406 C 371.832031 -5.277344 336.371094 -4.609375 336.027344 -4.597656 C 302.277344 -3.867188 282.042969 30.027344 262.464844 63.402344 C 245.542969 92.257812 228.046875 121.574219 205.535156 121.574219 C 205.488281 121.574219 205.429688 121.574219 205.382812 121.574219 C 181.824219 121.574219 166.035156 96.160156 149.316406 66.425781 C 130.074219 32.207031 110.183594 -0.503906 73.136719 -0.503906 L 0.621094 -0.503906 L 0.621094 22.75 L 27.925781 22.75 C 47.835938 33.289062 72.632812 75.070312 90.875 111.558594 C 114.964844 159.769531 139.867188 208.777344 181.585938 208.777344 C 181.671875 208.777344 181.761719 208.777344 181.839844 208.777344 C 190.773438 208.777344 199.011719 206.101562 206.714844 201.632812 C 207.375 201.253906 208.019531 200.769531 208.671875 200.351562 C 213.007812 199.792969 217.179688 198.847656 221.1875 197.15625 C 221.492188 197.03125 220.957031 197.273438 221.265625 197.144531 C 221.628906 197.292969 222.816406 198.097656 223.1875 198.242188 C 229.191406 200.660156 235.570312 202.960938 242.410156 202.960938 C 242.5 202.960938 242.585938 202.960938 242.679688 202.960938 C 254.089844 202.960938 264.390625 197.839844 273.855469 190.929688 C 282.265625 184.796875 290.015625 175.917969 297.328125 166.117188 C 310.964844 147.847656 323.050781 124.382812 334.964844 101.53125 C 351.601562 69.585938 368.6875 36.6875 389.414062 19.003906 C 389.847656 18.636719 390.28125 18.226562 390.722656 17.871094 C 393.03125 17.894531 395.332031 17.894531 397.585938 17.933594 C 400.882812 21.0625 406.984375 30.6875 411.144531 37.257812 C 422.898438 55.828125 432.132812 70.574219 445.464844 69.882812 C 455.714844 69.40625 463.027344 62 469.238281 52.316406 C 469.347656 52.464844 469.453125 52.617188 469.570312 52.769531 C 481.550781 69.035156 494.417969 83.691406 507.050781 83.683594 C 507.410156 83.683594 507.765625 83.671875 508.132812 83.648438 C 509.601562 83.542969 511.015625 83.339844 512.375 83.039062 C 513.332031 82.824219 514.261719 82.554688 515.167969 82.242188 C 516.1875 82.347656 517.210938 82.386719 518.226562 82.328125 C 540.214844 80.859375 550.136719 59.042969 558.109375 39.671875 C 561.113281 32.335938 564.191406 22.75 567.40625 22.75 L 570.113281 22.75 Z M 203.425781 201.980469 C 196.671875 205.457031 189.34375 208.140625 181.671875 208.140625 C 140.882812 208.140625 116.09375 159.445312 92.210938 111.640625 C 74.339844 75.875 55.996094 40.1875 30.691406 22.75 L 46.214844 22.75 C 47.488281 22.75 49.859375 22.441406 51.101562 23.113281 C 76.820312 37.03125 94.214844 69.546875 112.21875 105.203125 C 135.847656 152.003906 160.527344 200.148438 202.285156 200.148438 C 202.371094 200.148438 203.738281 200.242188 203.832031 200.242188 C 204.65625 200.242188 204.65625 200.300781 205.464844 200.242188 C 205.824219 200.226562 204.238281 201.5625 203.425781 201.980469 Z M 214.273438 194.421875 C 210.308594 195.636719 206.542969 197.148438 202.277344 197.148438 C 202.199219 197.148438 202.121094 197.148438 202.039062 197.148438 C 163.960938 197.148438 140.367188 150.449219 117.550781 105.269531 C 100.957031 72.40625 83.945312 40.1875 60.824219 22.75 L 73.136719 22.75 C 96.785156 22.75 112.605469 48.59375 129.347656 78.386719 C 139.261719 96.015625 149.34375 112.796875 161.84375 126.035156 C 162.457031 126.679688 163.101562 127.039062 163.726562 127.65625 C 164.238281 128.640625 164.746094 129.523438 165.261719 130.492188 C 179.378906 156.972656 195.734375 181.394531 215.265625 193.421875 C 215.378906 193.488281 214.167969 194.363281 214.273438 194.421875 Z M 217.976562 191.347656 C 217.65625 191.167969 217.320312 191.027344 217 190.84375 C 198.828125 180.191406 184.1875 158.746094 170.792969 134.320312 C 170.609375 133.980469 170.429688 133.636719 170.246094 133.300781 C 170.363281 133.394531 170.476562 132.835938 170.589844 132.933594 C 180.398438 140.738281 191.707031 144.828125 205.347656 144.828125 C 205.445312 144.828125 205.546875 144.828125 205.644531 144.828125 C 241.195312 144.828125 262.050781 109.484375 282.222656 75.089844 C 298.617188 47.140625 315.566406 18.429688 336.539062 17.976562 C 336.574219 17.96875 336.90625 18.125 337.453125 18.101562 C 337.386719 18.136719 337.324219 18.253906 337.253906 18.296875 C 311.34375 33.339844 291.492188 71.476562 272.152344 108.59375 C 255.921875 139.742188 239.332031 171.601562 219.113281 190.34375 C 218.738281 190.691406 218.351562 191.011719 217.976562 191.347656 Z M 220.304688 191.242188 C 220.769531 190.8125 221.242188 190.398438 221.707031 189.953125 C 241.40625 170.882812 257.605469 139.777344 273.476562 109.320312 C 292.96875 71.90625 313 33.472656 339.027344 19.089844 C 339.613281 18.765625 340.207031 18.476562 340.800781 18.171875 C 342.398438 18.132812 344.390625 18.085938 346.710938 18.050781 C 346.292969 18.339844 345.871094 18.539062 345.460938 18.847656 C 322.78125 35.554688 305.003906 69.308594 287.664062 102.257812 C 267.792969 140 247.367188 178.796875 220.304688 191.242188 Z M 385.121094 18.695312 C 364.996094 37.171875 348.445312 68.921875 332.308594 99.902344 C 320.484375 122.597656 308.464844 145.671875 295.011719 163.726562 C 287.6875 173.554688 279.941406 181.488281 271.558594 187.480469 C 262.710938 193.800781 253.148438 197.148438 242.660156 197.148438 C 242.578125 197.148438 242.5 197.148438 242.410156 197.148438 C 236.917969 197.148438 231.71875 196.648438 226.765625 194.945312 C 226.464844 194.839844 226.175781 194.90625 225.871094 194.796875 C 226.117188 194.671875 226.359375 194.671875 226.605469 194.539062 C 253.535156 179.664062 273.5 141.871094 292.949219 104.925781 C 311.75 69.203125 331.078125 32.566406 355.863281 19.265625 C 356.902344 18.707031 357.953125 18.277344 359.011719 17.808594 C 367.164062 17.726562 376.695312 17.695312 386.179688 17.765625 C 385.824219 18.074219 385.476562 18.375 385.121094 18.695312 Z M 445.46875 46.210938 C 441.441406 42.292969 434.707031 31.671875 430.484375 24.984375 C 427.921875 20.929688 425.519531 17.167969 423.203125 13.730469 C 427.84375 13.730469 432.890625 13.742188 438.28125 13.765625 C 442.617188 16.101562 448.0625 22.804688 453.964844 30.910156 C 454.179688 31.207031 454.402344 31.527344 454.621094 31.828125 C 451.519531 37.648438 447.921875 43.914062 445.46875 46.210938 Z M 458.359375 24.644531 C 457.511719 26.292969 456.5 28.269531 455.402344 30.359375 C 455.222656 30.113281 455.035156 29.847656 454.855469 29.601562 C 449.746094 22.613281 445.085938 16.847656 440.984375 13.777344 C 443.117188 13.785156 445.3125 13.796875 447.574219 13.808594 C 450.160156 13.820312 454.257812 18.023438 458.820312 23.742188 C 458.660156 24.050781 458.511719 24.335938 458.359375 24.644531 Z M 510.902344 81.792969 C 509.96875 81.964844 509.003906 82.085938 508.023438 82.15625 C 507.703125 82.171875 507.394531 82.183594 507.074219 82.183594 C 495.046875 82.183594 482.011719 67.144531 470.40625 51.375 C 470.296875 51.226562 470.203125 51.082031 470.09375 50.941406 C 471.386719 48.851562 472.636719 46.671875 473.851562 44.433594 C 474.074219 44.746094 474.289062 45.046875 474.507812 45.363281 C 485.777344 61.222656 497.980469 77.167969 510.78125 81.316406 C 511.113281 81.429688 511.445312 81.503906 511.78125 81.597656 C 511.492188 81.65625 511.199219 81.738281 510.902344 81.792969 Z M 523.867188 75.703125 C 523.460938 75.832031 523.054688 75.847656 522.644531 75.96875 C 521.113281 76.40625 519.511719 76.457031 517.824219 76.574219 C 505.273438 77.433594 490.125 57.15625 477.589844 39.472656 C 477.386719 39.1875 477.183594 39.308594 476.984375 39.019531 C 477.566406 37.878906 478.152344 38.527344 478.738281 37.386719 C 481.652344 31.695312 485.921875 22.75 488.566406 22.75 L 553.761719 22.75 C 551.070312 22.75 548.578125 32.5625 545.917969 39.027344 C 541.132812 50.640625 535.636719 63.523438 527.449219 72.464844 C 526.308594 73.71875 525.117188 74.644531 523.867188 75.703125 Z M 552.574219 37.378906 C 546.847656 51.296875 540.558594 65.449219 530.230469 72.917969 C 529.390625 73.523438 528.519531 73.777344 527.628906 74.21875 C 528.535156 73.285156 529.425781 72.207031 530.261719 71.179688 C 537.671875 62.152344 542.796875 50.582031 547.292969 39.652344 C 550.09375 32.859375 552.703125 22.75 555.476562 22.75 L 560.277344 22.75 C 557.648438 22.75 555.230469 30.925781 552.574219 37.378906 Z M 552.574219 37.378906 " fill-opacity="1" fill-rule="nonzero"/></g></g></g></g></g><g clip-path="url(#4758b537d2)"><g mask="url(#91c6e247f3)"><g transform="matrix(1, 0, 0, 1, 0.000000000000000222, 353)"><g clip-path="url(#04d9f7b621)"><g clip-path="url(#c33a871924)"><path fill="#004aad" d="M 0.632812 210.761719 L 84.179688 210.761719 C 95.441406 210.761719 102.175781 202.902344 108.921875 190.171875 C 114.375 196.695312 118.785156 201.351562 123.136719 201.375 C 134.082031 201.433594 143.558594 201.976562 151.816406 201.976562 C 157.742188 209.710938 163.472656 214.808594 170.582031 214.949219 C 198.914062 215.535156 234.375 214.867188 234.71875 214.855469 C 268.46875 214.121094 288.703125 180.230469 308.28125 146.855469 C 325.203125 118 342.699219 88.679688 365.214844 88.679688 C 365.261719 88.679688 365.316406 88.679688 365.363281 88.679688 C 388.921875 88.679688 404.710938 114.097656 421.429688 143.832031 C 440.671875 178.050781 460.5625 210.761719 497.609375 210.761719 L 570.125 210.761719 L 570.125 187.507812 L 542.820312 187.507812 C 522.910156 176.96875 498.113281 135.1875 479.875 98.699219 C 455.78125 50.488281 430.878906 1.480469 389.160156 1.480469 C 389.074219 1.480469 388.988281 1.480469 388.90625 1.480469 C 379.972656 1.480469 371.734375 4.15625 364.035156 8.625 C 363.371094 9.003906 362.726562 9.484375 362.074219 9.902344 C 357.738281 10.460938 353.566406 11.410156 349.558594 13.101562 C 349.257812 13.222656 349.789062 12.984375 349.484375 13.113281 C 349.117188 12.960938 347.929688 12.160156 347.558594 12.015625 C 341.554688 9.597656 335.175781 7.292969 328.335938 7.292969 C 328.25 7.292969 328.160156 7.292969 328.070312 7.292969 C 316.65625 7.292969 306.359375 12.414062 296.890625 19.328125 C 288.484375 25.460938 280.730469 34.335938 273.421875 44.140625 C 259.78125 62.410156 247.695312 85.875 235.78125 108.726562 C 219.144531 140.671875 202.058594 173.566406 181.332031 191.253906 C 180.902344 191.617188 180.464844 192.03125 180.023438 192.386719 C 177.714844 192.363281 175.414062 192.363281 173.160156 192.320312 C 169.867188 189.195312 163.761719 179.566406 159.601562 173 C 147.847656 154.429688 138.613281 139.683594 125.28125 140.375 C 115.03125 140.851562 107.722656 148.257812 101.507812 157.941406 C 101.398438 157.789062 101.292969 157.640625 101.175781 157.488281 C 89.195312 141.222656 76.328125 126.566406 63.695312 126.574219 C 63.335938 126.574219 62.980469 126.585938 62.613281 126.609375 C 61.144531 126.710938 59.730469 126.914062 58.371094 127.21875 C 57.414062 127.433594 56.484375 127.699219 55.578125 128.015625 C 54.558594 127.910156 53.539062 127.871094 52.519531 127.925781 C 30.53125 129.398438 20.613281 151.214844 12.636719 170.585938 C 9.632812 177.921875 6.554688 187.507812 3.339844 187.507812 L 0.632812 187.507812 Z M 367.324219 8.277344 C 374.074219 4.800781 381.402344 2.113281 389.074219 2.113281 C 429.863281 2.113281 454.652344 50.8125 478.535156 98.617188 C 496.40625 134.378906 514.753906 170.070312 540.054688 187.507812 L 524.53125 187.507812 C 523.257812 187.507812 520.886719 187.816406 519.644531 187.140625 C 493.925781 173.226562 476.53125 140.710938 458.527344 105.050781 C 434.902344 58.253906 410.222656 10.109375 368.460938 10.109375 C 368.375 10.109375 367.007812 10.015625 366.917969 10.015625 C 366.089844 10.015625 366.089844 9.957031 365.28125 10.015625 C 364.921875 10.03125 366.507812 8.695312 367.324219 8.277344 Z M 356.472656 15.832031 C 360.4375 14.617188 364.203125 13.109375 368.46875 13.109375 C 368.550781 13.109375 368.625 13.109375 368.707031 13.109375 C 406.785156 13.109375 430.378906 59.804688 453.195312 104.988281 C 469.789062 137.851562 486.800781 170.070312 509.921875 187.507812 L 497.609375 187.507812 C 473.964844 187.507812 458.140625 161.664062 441.398438 131.867188 C 431.484375 114.242188 421.402344 97.460938 408.902344 84.222656 C 408.292969 83.578125 407.644531 83.214844 407.019531 82.601562 C 406.507812 81.617188 406 80.734375 405.484375 79.761719 C 391.371094 53.285156 375.011719 28.863281 355.480469 16.832031 C 355.371094 16.769531 356.578125 15.890625 356.472656 15.832031 Z M 352.773438 18.910156 C 353.089844 19.089844 353.429688 19.230469 353.746094 19.414062 C 371.917969 30.066406 386.558594 51.511719 399.953125 75.9375 C 400.136719 76.277344 400.320312 76.617188 400.5 76.957031 C 400.382812 76.863281 400.273438 77.421875 400.15625 77.320312 C 390.347656 69.519531 379.039062 65.429688 365.398438 65.429688 C 365.300781 65.429688 365.203125 65.429688 365.101562 65.429688 C 329.550781 65.429688 308.695312 100.773438 288.523438 135.164062 C 272.128906 163.117188 255.179688 191.828125 234.207031 192.28125 C 234.171875 192.289062 233.839844 192.128906 233.292969 192.152344 C 233.359375 192.117188 233.421875 192.003906 233.492188 191.960938 C 259.402344 176.917969 279.253906 138.78125 298.59375 101.664062 C 314.824219 70.515625 331.414062 38.65625 351.632812 19.914062 C 352.011719 19.566406 352.394531 19.246094 352.773438 18.910156 Z M 350.441406 19.015625 C 349.976562 19.445312 349.503906 19.855469 349.039062 20.304688 C 329.339844 39.371094 313.140625 70.480469 297.269531 100.9375 C 277.777344 138.351562 257.746094 176.78125 231.71875 191.164062 C 231.132812 191.492188 230.539062 191.78125 229.945312 192.082031 C 228.347656 192.125 226.355469 192.171875 224.035156 192.207031 C 224.457031 191.914062 224.875 191.71875 225.285156 191.410156 C 247.96875 174.703125 265.742188 140.949219 283.085938 108 C 302.953125 70.257812 323.378906 31.460938 350.441406 19.015625 Z M 185.625 191.5625 C 205.75 173.085938 222.300781 141.332031 238.4375 110.355469 C 250.261719 87.65625 262.28125 64.585938 275.734375 46.527344 C 283.0625 36.703125 290.808594 28.769531 299.1875 22.773438 C 308.039062 16.457031 317.597656 13.109375 328.085938 13.109375 C 328.167969 13.109375 328.25 13.109375 328.335938 13.109375 C 333.828125 13.109375 339.027344 13.605469 343.980469 15.3125 C 344.28125 15.414062 344.570312 15.351562 344.875 15.460938 C 344.628906 15.582031 344.386719 15.582031 344.140625 15.71875 C 317.214844 30.59375 297.246094 68.386719 277.796875 105.332031 C 258.996094 141.054688 239.667969 177.691406 214.882812 190.992188 C 213.84375 191.550781 212.792969 191.980469 211.734375 192.449219 C 203.582031 192.53125 194.050781 192.558594 184.566406 192.492188 C 184.921875 192.183594 185.269531 191.878906 185.625 191.5625 Z M 125.277344 164.046875 C 129.304688 167.964844 136.039062 178.585938 140.261719 185.269531 C 142.824219 189.328125 145.226562 193.089844 147.542969 196.523438 C 142.902344 196.523438 137.859375 196.511719 132.464844 196.492188 C 128.128906 194.152344 122.683594 187.449219 116.78125 179.347656 C 116.566406 179.050781 116.34375 178.730469 116.125 178.429688 C 119.226562 172.609375 122.824219 166.34375 125.277344 164.046875 Z M 112.386719 185.613281 C 113.234375 183.960938 114.246094 181.984375 115.34375 179.898438 C 115.523438 180.144531 115.710938 180.410156 115.890625 180.65625 C 121 187.640625 125.660156 193.410156 129.761719 196.480469 C 127.628906 196.472656 125.433594 196.460938 123.171875 196.449219 C 120.585938 196.4375 116.488281 192.234375 111.929688 186.515625 C 112.085938 186.207031 112.234375 185.921875 112.386719 185.613281 Z M 59.84375 128.460938 C 60.777344 128.292969 61.742188 128.171875 62.726562 128.101562 C 63.042969 128.085938 63.351562 128.074219 63.671875 128.074219 C 75.703125 128.074219 88.734375 143.113281 100.339844 158.882812 C 100.449219 159.027344 100.542969 159.175781 100.65625 159.3125 C 99.359375 161.40625 98.109375 163.585938 96.894531 165.824219 C 96.671875 165.511719 96.457031 165.207031 96.238281 164.894531 C 84.96875 149.035156 72.765625 133.089844 59.964844 128.9375 C 59.632812 128.828125 59.300781 128.753906 58.964844 128.660156 C 59.253906 128.601562 59.546875 128.519531 59.84375 128.460938 Z M 46.878906 134.554688 C 47.285156 134.425781 47.691406 134.410156 48.105469 134.289062 C 49.632812 133.851562 51.238281 133.800781 52.921875 133.683594 C 65.472656 132.824219 80.625 153.097656 93.15625 170.785156 C 93.363281 171.070312 93.566406 170.945312 93.761719 171.238281 C 93.179688 172.375 92.59375 171.730469 92.007812 172.871094 C 89.097656 178.5625 84.824219 187.507812 82.179688 187.507812 L 16.984375 187.507812 C 19.675781 187.507812 22.167969 177.695312 24.832031 171.230469 C 29.613281 159.617188 35.109375 146.734375 43.296875 137.792969 C 44.4375 136.535156 45.628906 135.613281 46.878906 134.554688 Z M 18.171875 172.875 C 23.902344 158.960938 30.1875 144.808594 40.515625 137.339844 C 41.355469 136.734375 42.230469 136.480469 43.117188 136.035156 C 42.210938 136.972656 41.324219 138.046875 40.484375 139.078125 C 33.078125 148.105469 27.949219 159.675781 23.453125 170.601562 C 20.652344 177.398438 18.042969 187.507812 15.269531 187.507812 L 10.472656 187.507812 C 13.097656 187.507812 15.515625 179.328125 18.171875 172.875 Z M 18.171875 172.875 " fill-opacity="1" fill-rule="nonzero"/></g></g></g></g></g><g mask="url(#d08f390637)"><g transform="matrix(1, 0, 0, 1, 570, 353)"><g clip-path="url(#a8085f5f01)"><g clip-path="url(#17e1af0d2b)"><path fill="#004aad" d="M 0.125 210.761719 L 83.671875 210.761719 C 94.9375 210.761719 101.671875 202.902344 108.417969 190.171875 C 113.867188 196.695312 118.277344 201.351562 122.632812 201.375 C 133.574219 201.433594 143.050781 201.976562 151.308594 201.976562 C 157.238281 209.710938 162.96875 214.808594 170.074219 214.949219 C 198.410156 215.535156 233.867188 214.867188 234.210938 214.855469 C 267.964844 214.121094 288.199219 180.230469 307.773438 146.855469 C 324.699219 118 342.195312 88.679688 364.707031 88.679688 C 364.753906 88.679688 364.8125 88.679688 364.859375 88.679688 C 388.417969 88.679688 404.207031 114.097656 420.925781 143.832031 C 440.164062 178.050781 460.058594 210.761719 497.101562 210.761719 L 569.621094 210.761719 L 569.621094 187.507812 L 542.3125 187.507812 C 522.40625 176.96875 497.609375 135.1875 479.367188 98.699219 C 455.273438 50.488281 430.375 1.480469 388.65625 1.480469 C 388.566406 1.480469 388.480469 1.480469 388.398438 1.480469 C 379.46875 1.480469 371.226562 4.15625 363.527344 8.625 C 362.863281 9.003906 362.21875 9.484375 361.570312 9.902344 C 357.234375 10.460938 353.0625 11.410156 349.050781 13.101562 C 348.75 13.222656 349.285156 12.984375 348.976562 13.113281 C 348.609375 12.960938 347.425781 12.160156 347.054688 12.015625 C 341.050781 9.597656 334.667969 7.292969 327.828125 7.292969 C 327.742188 7.292969 327.65625 7.292969 327.5625 7.292969 C 316.148438 7.292969 305.851562 12.414062 296.386719 19.328125 C 287.976562 25.460938 280.222656 34.335938 272.914062 44.140625 C 259.273438 62.410156 247.1875 85.875 235.273438 108.726562 C 218.636719 140.671875 201.554688 173.566406 180.824219 191.253906 C 180.394531 191.617188 179.957031 192.03125 179.515625 192.386719 C 177.210938 192.363281 174.910156 192.363281 172.652344 192.320312 C 169.359375 189.195312 163.257812 179.566406 159.097656 173 C 147.339844 154.429688 138.105469 139.683594 124.777344 140.375 C 114.523438 140.851562 107.214844 148.257812 101.003906 157.941406 C 100.890625 157.789062 100.789062 157.640625 100.671875 157.488281 C 88.6875 141.222656 75.824219 126.566406 63.1875 126.574219 C 62.828125 126.574219 62.472656 126.585938 62.109375 126.609375 C 60.636719 126.710938 59.226562 126.914062 57.867188 127.21875 C 56.90625 127.433594 55.976562 127.699219 55.070312 128.015625 C 54.054688 127.910156 53.03125 127.871094 52.015625 127.925781 C 30.023438 129.398438 20.105469 151.214844 12.132812 170.585938 C 9.128906 177.921875 6.046875 187.507812 2.835938 187.507812 L 0.125 187.507812 Z M 366.816406 8.277344 C 373.570312 4.800781 380.898438 2.113281 388.566406 2.113281 C 429.355469 2.113281 454.148438 50.8125 478.03125 98.617188 C 495.898438 134.378906 514.246094 170.070312 539.546875 187.507812 L 524.027344 187.507812 C 522.753906 187.507812 520.382812 187.816406 519.140625 187.140625 C 493.417969 173.226562 476.027344 140.710938 458.023438 105.050781 C 434.394531 58.253906 409.714844 10.109375 367.957031 10.109375 C 367.867188 10.109375 366.503906 10.015625 366.410156 10.015625 C 365.585938 10.015625 365.585938 9.957031 364.777344 10.015625 C 364.417969 10.03125 366.003906 8.695312 366.816406 8.277344 Z M 355.96875 15.832031 C 359.929688 14.617188 363.695312 13.109375 367.960938 13.109375 C 368.042969 13.109375 368.117188 13.109375 368.199219 13.109375 C 406.28125 13.109375 429.875 59.804688 452.6875 104.988281 C 469.285156 137.851562 486.292969 170.070312 509.417969 187.507812 L 497.101562 187.507812 C 473.457031 187.507812 457.632812 161.664062 440.890625 131.867188 C 430.976562 114.242188 420.894531 97.460938 408.394531 84.222656 C 407.785156 83.578125 407.140625 83.214844 406.511719 82.601562 C 406 81.617188 405.496094 80.734375 404.980469 79.761719 C 390.863281 53.285156 374.503906 28.863281 354.972656 16.832031 C 354.863281 16.769531 356.070312 15.890625 355.96875 15.832031 Z M 352.265625 18.910156 C 352.585938 19.089844 352.921875 19.230469 353.242188 19.414062 C 371.414062 30.066406 386.050781 51.511719 399.445312 75.9375 C 399.632812 76.277344 399.8125 76.617188 399.992188 76.957031 C 399.875 76.863281 399.765625 77.421875 399.648438 77.320312 C 389.839844 69.519531 378.53125 65.429688 364.894531 65.429688 C 364.792969 65.429688 364.695312 65.429688 364.597656 65.429688 C 329.042969 65.429688 308.1875 100.773438 288.015625 135.164062 C 271.625 163.117188 254.671875 191.828125 233.699219 192.28125 C 233.664062 192.289062 233.335938 192.128906 232.789062 192.152344 C 232.851562 192.117188 232.914062 192.003906 232.984375 191.960938 C 258.898438 176.917969 278.75 138.78125 298.089844 101.664062 C 314.320312 70.515625 330.910156 38.65625 351.125 19.914062 C 351.503906 19.566406 351.886719 19.246094 352.265625 18.910156 Z M 349.933594 19.015625 C 349.46875 19.445312 349 19.855469 348.535156 20.304688 C 328.835938 39.371094 312.632812 70.480469 296.761719 100.9375 C 277.273438 138.351562 257.242188 176.78125 231.214844 191.164062 C 230.625 191.492188 230.035156 191.78125 229.441406 192.082031 C 227.84375 192.125 225.847656 192.171875 223.53125 192.207031 C 223.949219 191.914062 224.367188 191.71875 224.78125 191.410156 C 247.460938 174.703125 265.238281 140.949219 282.578125 108 C 302.445312 70.257812 322.871094 31.460938 349.933594 19.015625 Z M 185.117188 191.5625 C 205.242188 173.085938 221.792969 141.332031 237.929688 110.355469 C 249.757812 87.65625 261.773438 64.585938 275.226562 46.527344 C 282.554688 36.703125 290.300781 28.769531 298.679688 22.773438 C 307.53125 16.457031 317.089844 13.109375 327.578125 13.109375 C 327.660156 13.109375 327.742188 13.109375 327.828125 13.109375 C 333.320312 13.109375 338.523438 13.605469 343.472656 15.3125 C 343.773438 15.414062 344.066406 15.351562 344.367188 15.460938 C 344.125 15.582031 343.878906 15.582031 343.636719 15.71875 C 316.707031 30.59375 296.738281 68.386719 277.289062 105.332031 C 258.492188 141.054688 239.164062 177.691406 214.378906 190.992188 C 213.339844 191.550781 212.285156 191.980469 211.230469 192.449219 C 203.074219 192.53125 193.546875 192.558594 184.0625 192.492188 C 184.414062 192.183594 184.765625 191.878906 185.117188 191.5625 Z M 124.769531 164.046875 C 128.796875 167.964844 135.53125 178.585938 139.757812 185.269531 C 142.320312 189.328125 144.71875 193.089844 147.039062 196.523438 C 142.394531 196.523438 137.351562 196.511719 131.957031 196.492188 C 127.625 194.152344 122.179688 187.449219 116.273438 179.347656 C 116.058594 179.050781 115.839844 178.730469 115.617188 178.429688 C 118.722656 172.609375 122.316406 166.34375 124.769531 164.046875 Z M 111.882812 185.613281 C 112.730469 183.960938 113.742188 181.984375 114.839844 179.898438 C 115.019531 180.144531 115.203125 180.410156 115.386719 180.65625 C 120.492188 187.640625 125.152344 193.410156 129.257812 196.480469 C 127.125 196.472656 124.925781 196.460938 122.667969 196.449219 C 120.082031 196.4375 115.984375 192.234375 111.421875 186.515625 C 111.578125 186.207031 111.730469 185.921875 111.882812 185.613281 Z M 59.335938 128.460938 C 60.273438 128.292969 61.238281 128.171875 62.21875 128.101562 C 62.539062 128.085938 62.847656 128.074219 63.167969 128.074219 C 75.195312 128.074219 88.230469 143.113281 99.835938 158.882812 C 99.945312 159.027344 100.039062 159.175781 100.148438 159.3125 C 98.851562 161.40625 97.601562 163.585938 96.386719 165.824219 C 96.167969 165.511719 95.953125 165.207031 95.730469 164.894531 C 84.464844 149.035156 72.261719 133.089844 59.457031 128.9375 C 59.128906 128.828125 58.796875 128.753906 58.460938 128.660156 C 58.75 128.601562 59.039062 128.519531 59.335938 128.460938 Z M 46.371094 134.554688 C 46.777344 134.425781 47.183594 134.410156 47.597656 134.289062 C 49.125 133.851562 50.730469 133.800781 52.414062 133.683594 C 64.96875 132.824219 80.117188 153.097656 92.652344 170.785156 C 92.855469 171.070312 93.058594 170.945312 93.257812 171.238281 C 92.675781 172.375 92.089844 171.730469 91.5 172.871094 C 88.589844 178.5625 84.320312 187.507812 81.675781 187.507812 L 16.480469 187.507812 C 19.167969 187.507812 21.664062 177.695312 24.324219 171.230469 C 29.105469 159.617188 34.605469 146.734375 42.792969 137.792969 C 43.929688 136.535156 45.121094 135.613281 46.371094 134.554688 Z M 17.664062 172.875 C 23.394531 158.960938 29.683594 144.808594 40.007812 137.339844 C 40.851562 136.734375 41.722656 136.480469 42.613281 136.035156 C 41.707031 136.972656 40.816406 138.046875 39.980469 139.078125 C 32.570312 148.105469 27.445312 159.675781 22.945312 170.601562 C 20.144531 177.398438 17.535156 187.507812 14.765625 187.507812 L 9.964844 187.507812 C 12.589844 187.507812 15.007812 179.328125 17.664062 172.875 Z M 17.664062 172.875 " fill-opacity="1" fill-rule="nonzero"/></g></g></g></g><g clip-path="url(#5641b339f2)"><g mask="url(#6768186595)"><g transform="matrix(1, 0, 0, 1, 1139, 353)"><g clip-path="url(#7cb228a73d)"><g clip-path="url(#9e3034ecce)"><path fill="#004aad" d="M 0.621094 210.761719 L 84.167969 210.761719 C 95.429688 210.761719 102.164062 202.902344 108.910156 190.171875 C 114.363281 196.695312 118.773438 201.351562 123.125 201.375 C 134.066406 201.433594 143.546875 201.976562 151.804688 201.976562 C 157.730469 209.710938 163.460938 214.808594 170.566406 214.949219 C 198.902344 215.535156 234.363281 214.867188 234.707031 214.855469 C 268.457031 214.121094 288.691406 180.230469 308.269531 146.855469 C 325.191406 118 342.6875 88.679688 365.199219 88.679688 C 365.246094 88.679688 365.304688 88.679688 365.351562 88.679688 C 388.910156 88.679688 404.699219 114.097656 421.417969 143.832031 C 440.660156 178.050781 460.550781 210.761719 497.597656 210.761719 L 570.113281 210.761719 L 570.113281 187.507812 L 542.808594 187.507812 C 522.898438 176.96875 498.101562 135.1875 479.859375 98.699219 C 455.769531 50.488281 430.867188 1.480469 389.148438 1.480469 C 389.0625 1.480469 388.972656 1.480469 388.894531 1.480469 C 379.960938 1.480469 371.722656 4.15625 364.019531 8.625 C 363.359375 9.003906 362.714844 9.484375 362.0625 9.902344 C 357.726562 10.460938 353.554688 11.410156 349.546875 13.101562 C 349.242188 13.222656 349.777344 12.984375 349.46875 13.113281 C 349.105469 12.960938 347.917969 12.160156 347.546875 12.015625 C 341.542969 9.597656 335.164062 7.292969 328.324219 7.292969 C 328.234375 7.292969 328.148438 7.292969 328.054688 7.292969 C 316.644531 7.292969 306.34375 12.414062 296.878906 19.328125 C 288.46875 25.460938 280.71875 34.335938 273.40625 44.140625 C 259.769531 62.410156 247.683594 85.875 235.769531 108.726562 C 219.132812 140.671875 202.046875 173.566406 181.316406 191.253906 C 180.886719 191.617188 180.453125 192.03125 180.011719 192.386719 C 177.703125 192.363281 175.402344 192.363281 173.148438 192.320312 C 169.851562 189.195312 163.75 179.566406 159.589844 173 C 147.835938 154.429688 138.601562 139.683594 125.269531 140.375 C 115.019531 140.851562 107.707031 148.257812 101.496094 157.941406 C 101.386719 157.789062 101.28125 157.640625 101.164062 157.488281 C 89.183594 141.222656 76.316406 126.566406 63.683594 126.574219 C 63.324219 126.574219 62.96875 126.585938 62.601562 126.609375 C 61.132812 126.710938 59.71875 126.914062 58.359375 127.21875 C 57.402344 127.433594 56.472656 127.699219 55.566406 128.015625 C 54.546875 127.910156 53.523438 127.871094 52.507812 127.925781 C 30.519531 129.398438 20.597656 151.214844 12.625 170.585938 C 9.621094 177.921875 6.542969 187.507812 3.328125 187.507812 L 0.621094 187.507812 Z M 367.308594 8.277344 C 374.0625 4.800781 381.390625 2.113281 389.0625 2.113281 C 429.851562 2.113281 454.640625 50.8125 478.523438 98.617188 C 496.394531 134.378906 514.738281 170.070312 540.042969 187.507812 L 524.519531 187.507812 C 523.246094 187.507812 520.875 187.816406 519.632812 187.140625 C 493.914062 173.226562 476.519531 140.710938 458.515625 105.050781 C 434.886719 58.253906 410.207031 10.109375 368.449219 10.109375 C 368.363281 10.109375 366.996094 10.015625 366.902344 10.015625 C 366.078125 10.015625 366.078125 9.957031 365.269531 10.015625 C 364.910156 10.03125 366.496094 8.695312 367.308594 8.277344 Z M 356.460938 15.832031 C 360.425781 14.617188 364.191406 13.109375 368.457031 13.109375 C 368.535156 13.109375 368.613281 13.109375 368.695312 13.109375 C 406.773438 13.109375 430.367188 59.804688 453.183594 104.988281 C 469.777344 137.851562 486.789062 170.070312 509.910156 187.507812 L 497.597656 187.507812 C 473.949219 187.507812 458.128906 161.664062 441.386719 131.867188 C 431.472656 114.242188 421.390625 97.460938 408.890625 84.222656 C 408.277344 83.578125 407.632812 83.214844 407.007812 82.601562 C 406.496094 81.617188 405.988281 80.734375 405.472656 79.761719 C 391.355469 53.285156 375 28.863281 355.46875 16.832031 C 355.355469 16.769531 356.566406 15.890625 356.460938 15.832031 Z M 352.757812 18.910156 C 353.078125 19.089844 353.414062 19.230469 353.734375 19.414062 C 371.90625 30.066406 386.546875 51.511719 399.941406 75.9375 C 400.125 76.277344 400.304688 76.617188 400.484375 76.957031 C 400.371094 76.863281 400.257812 77.421875 400.144531 77.320312 C 390.335938 69.519531 379.027344 65.429688 365.386719 65.429688 C 365.289062 65.429688 365.1875 65.429688 365.089844 65.429688 C 329.539062 65.429688 308.679688 100.773438 288.511719 135.164062 C 272.117188 163.117188 255.167969 191.828125 234.195312 192.28125 C 234.160156 192.289062 233.828125 192.128906 233.28125 192.152344 C 233.34375 192.117188 233.410156 192.003906 233.480469 191.960938 C 259.390625 176.917969 279.242188 138.78125 298.582031 101.664062 C 314.8125 70.515625 331.402344 38.65625 351.621094 19.914062 C 351.996094 19.566406 352.382812 19.246094 352.757812 18.910156 Z M 350.429688 19.015625 C 349.964844 19.445312 349.492188 19.855469 349.027344 20.304688 C 329.328125 39.371094 313.128906 70.480469 297.257812 100.9375 C 277.765625 138.351562 257.734375 176.78125 231.707031 191.164062 C 231.121094 191.492188 230.527344 191.78125 229.933594 192.082031 C 228.335938 192.125 226.34375 192.171875 224.023438 192.207031 C 224.441406 191.914062 224.863281 191.71875 225.273438 191.410156 C 247.953125 174.703125 265.730469 140.949219 283.070312 108 C 302.941406 70.257812 323.367188 31.460938 350.429688 19.015625 Z M 185.613281 191.5625 C 205.738281 173.085938 222.285156 141.332031 238.425781 110.355469 C 250.25 87.65625 262.269531 64.585938 275.71875 46.527344 C 283.046875 36.703125 290.792969 28.769531 299.175781 22.773438 C 308.023438 16.457031 317.585938 13.109375 328.074219 13.109375 C 328.15625 13.109375 328.234375 13.109375 328.324219 13.109375 C 333.816406 13.109375 339.015625 13.605469 343.96875 15.3125 C 344.269531 15.414062 344.558594 15.351562 344.863281 15.460938 C 344.617188 15.582031 344.375 15.582031 344.128906 15.71875 C 317.199219 30.59375 297.234375 68.386719 277.785156 105.332031 C 258.984375 141.054688 239.65625 177.691406 214.871094 190.992188 C 213.832031 191.550781 212.78125 191.980469 211.722656 192.449219 C 203.570312 192.53125 194.039062 192.558594 184.554688 192.492188 C 184.910156 192.183594 185.257812 191.878906 185.613281 191.5625 Z M 125.265625 164.046875 C 129.292969 167.964844 136.027344 178.585938 140.25 185.269531 C 142.8125 189.328125 145.214844 193.089844 147.53125 196.523438 C 142.890625 196.523438 137.84375 196.511719 132.453125 196.492188 C 128.117188 194.152344 122.671875 187.449219 116.769531 179.347656 C 116.554688 179.050781 116.332031 178.730469 116.113281 178.429688 C 119.214844 172.609375 122.8125 166.34375 125.265625 164.046875 Z M 112.375 185.613281 C 113.222656 183.960938 114.234375 181.984375 115.332031 179.898438 C 115.511719 180.144531 115.699219 180.410156 115.878906 180.65625 C 120.988281 187.640625 125.648438 193.410156 129.75 196.480469 C 127.617188 196.472656 125.421875 196.460938 123.160156 196.449219 C 120.574219 196.4375 116.476562 192.234375 111.914062 186.515625 C 112.074219 186.207031 112.222656 185.921875 112.375 185.613281 Z M 59.832031 128.460938 C 60.765625 128.292969 61.730469 128.171875 62.710938 128.101562 C 63.03125 128.085938 63.339844 128.074219 63.660156 128.074219 C 75.6875 128.074219 88.722656 143.113281 100.328125 158.882812 C 100.4375 159.027344 100.53125 159.175781 100.640625 159.3125 C 99.347656 161.40625 98.097656 163.585938 96.882812 165.824219 C 96.660156 165.511719 96.445312 165.207031 96.226562 164.894531 C 84.957031 149.035156 72.753906 133.089844 59.953125 128.9375 C 59.621094 128.828125 59.289062 128.753906 58.953125 128.660156 C 59.242188 128.601562 59.535156 128.519531 59.832031 128.460938 Z M 46.867188 134.554688 C 47.273438 134.425781 47.679688 134.410156 48.089844 134.289062 C 49.621094 133.851562 51.222656 133.800781 52.910156 133.683594 C 65.460938 132.824219 80.609375 153.097656 93.144531 170.785156 C 93.347656 171.070312 93.550781 170.945312 93.75 171.238281 C 93.167969 172.375 92.582031 171.730469 91.996094 172.871094 C 89.082031 178.5625 84.8125 187.507812 82.167969 187.507812 L 16.972656 187.507812 C 19.664062 187.507812 22.15625 177.695312 24.816406 171.230469 C 29.601562 159.617188 35.097656 146.734375 43.285156 137.792969 C 44.425781 136.535156 45.617188 135.613281 46.867188 134.554688 Z M 18.160156 172.875 C 23.886719 158.960938 30.175781 144.808594 40.503906 137.339844 C 41.34375 136.734375 42.214844 136.480469 43.105469 136.035156 C 42.199219 136.972656 41.308594 138.046875 40.472656 139.078125 C 33.0625 148.105469 27.9375 159.675781 23.441406 170.601562 C 20.640625 177.398438 18.03125 187.507812 15.257812 187.507812 L 10.457031 187.507812 C 13.085938 187.507812 15.503906 179.328125 18.160156 172.875 Z M 18.160156 172.875 " fill-opacity="1" fill-rule="nonzero"/></g></g></g></g></g></svg>