<?xml version="1.0" encoding="UTF-8" standalone="no"?>
<svg
   width="215.79417"
   zoomAndPan="magnify"
   viewBox="0 0 161.84563 188.70517"
   height="251.6069"
   preserveAspectRatio="xMidYMid"
   version="1.0"
   id="svg69"
   xmlns="http://www.w3.org/2000/svg"
   xmlnsSvg="http://www.w3.org/2000/svg">
  <defs
     id="defs7">
    <g
       id="g1" />
    <clipPath
       id="744b827431">
      <path
         d="M 127,95 H 248 V 215 H 127 Z m 0,0"
         clip-rule="nonzero"
         id="path1" />
    </clipPath>
    <clipPath
       id="0ed8b33e9b">
      <path
         d="M 187.49609,37.5 305.23047,155.23437 187.49609,272.96875 69.765625,155.23437 Z m 0,0"
         clip-rule="nonzero"
         id="path2" />
    </clipPath>
    <clipPath
       id="f26de9f3a5">
      <path
         d="M 187.49609,37.5 305.23047,155.23437 187.49609,272.96875 69.765625,155.23437 Z m 0,0"
         clip-rule="nonzero"
         id="path3" />
    </clipPath>
    <clipPath
       id="287b0a49d6">
      <path
         d="M 187.49609,37.5 305.23047,155.23437 187.49609,272.96875 69.765625,155.23437 Z m 0,0"
         clip-rule="nonzero"
         id="path4" />
    </clipPath>
    <clipPath
       id="c454fe5412">
      <path
         d="M 110,62 H 272 V 252 H 110 Z m 0,0"
         clip-rule="nonzero"
         id="path5" />
    </clipPath>
    <clipPath
       id="40b2b5b1bd">
      <path
         d="M 178.54687,47.117188 298.92969,167.5 199.75781,266.67187 79.375,146.28906 Z m 0,0"
         clip-rule="nonzero"
         id="path6" />
    </clipPath>
    <clipPath
       id="dccf6bad36">
      <path
         d="M 178.54687,47.117188 298.92969,167.5 199.75781,266.67187 79.375,146.28906 Z m 0,0"
         clip-rule="nonzero"
         id="path7" />
    </clipPath>
  </defs>
  <g
     clip-path="url(#744b827431)"
     id="g12"
     transform="translate(-110.04789,-62.592232)">
    <g
       clip-path="url(#0ed8b33e9b)"
       id="g11">
      <g
         clip-path="url(#f26de9f3a5)"
         id="g10">
        <g
           clip-path="url(#287b0a49d6)"
           id="g9">
          <path
             fill="#FFFFFF"
             d="m 128.63281,214.09766 c -1.03125,-1.03125 -1.03125,-2.69922 0,-3.73047 l 55.13281,-55.13672 -55.13281,-55.13281 c -1.03125,-1.031254 -1.03125,-2.699222 0,-3.730472 1.03125,-1.03125 2.69922,-1.03125 3.73047,0 L 187.49609,151.5 242.63281,96.367188 c 1.03125,-1.03125 2.69922,-1.03125 3.73047,0 1.03125,1.03125 1.03125,2.699218 0,3.730472 l -55.13281,55.13281 55.13281,55.13672 c 1.03125,1.03125 1.03125,2.69922 0,3.73047 -1.03125,1.03125 -2.69922,1.03125 -3.73047,0 l -55.13672,-55.13282 -55.13281,55.13282 c -1.03125,1.03125 -2.69922,1.03125 -3.73047,0 z m 0,0"
             fill-opacity="1"
             fill-rule="nonzero"
             id="path9" />
        </g>
      </g>
    </g>
  </g>
  <g
     clip-path="url(#c454fe5412)"
     id="g15"
     transform="translate(-110.04789,-62.592232)">
    <g
       clip-path="url(#40b2b5b1bd)"
       id="g14">
      <g
         clip-path="url(#dccf6bad36)"
         id="g13">
        <path
           fill="#f3cd74"
           d="m 177.41797,236.48437 -1.71875,-1.71875 c -0.92578,-0.92578 -0.16797,-2.5 1.13672,-2.35937 10.60547,1.14844 21.625,-2.33594 29.74609,-10.45703 8.12109,-8.11719 11.60547,-19.14063 10.45703,-29.7461 -0.14062,-1.30468 1.42969,-2.0625 2.35938,-1.13671 l 1.97656,1.97656 c 11.89453,11.89844 12.00781,31.1875 0.35156,43.26562 -12.04297,12.47657 -32.0664,12.41797 -44.30859,0.17578 z m 7.03515,-36.66406 c 8.11719,-8.12109 11.60547,-19.14062 10.45704,-29.74609 -0.14454,-1.30469 1.42968,-2.06641 2.35546,-1.13672 l 15.42188,15.41797 c 0.23828,0.23828 0.38281,0.55859 0.40234,0.89453 2.58985,40.81641 -35.13672,51.76953 -54.08984,32.81641 l -5.42969,-5.42969 c -0.92969,-0.92969 -0.16797,-2.5 1.13672,-2.35938 10.60547,1.14844 21.625,-2.33984 29.74609,-10.45703 z M 175.20703,96.109375 C 187.25,83.632812 207.27344,83.695312 219.51562,95.933594 l 4.67969,4.679686 c 0.92578,0.92578 0.16797,2.5 -1.13672,2.35938 -10.60547,-1.14844 -21.6289,2.33593 -29.75,10.45703 -8.11718,8.11719 -11.60156,19.14062 -10.45312,29.74609 0.14062,1.30078 -1.4336,2.0625 -2.35938,1.13672 l -4.9375,-4.9375 C 163.66406,127.47656 163.54687,108.1875 175.20703,96.109375 Z M 156.92969,120.74609 C 145.03516,108.84766 144.91797,89.558594 156.57422,77.480469 168.62109,65 188.64453,65.0625 200.88672,77.304688 l 1.67187,1.671874 c 0.92578,0.925782 0.16797,2.5 -1.13672,2.359376 -10.60546,-1.148438 -21.625,2.335937 -29.74609,10.457031 -8.12109,8.117187 -11.60547,19.140621 -10.45703,29.746091 0.14062,1.30469 -1.42969,2.0625 -2.35938,1.13672 z m 68.0664,68.06641 -27.54297,-27.54297 C 185.21094,149.02734 185.15234,129 197.62891,116.95703 c 12.07421,-11.65625 31.36718,-11.54297 43.26562,0.35547 l 26.80078,26.80078 c 0.28516,0.28516 0.67969,0.42969 1.08203,0.40625 3.13672,-0.19531 3.90625,-3.26953 2.30469,-4.87109 L 204.85937,73.425781 c -14.4414,-14.441406 -38.0664,-14.515625 -52.27343,0.203125 -13.75,14.25 -13.61719,37.007814 0.41797,51.042974 l 27.30468,27.30859 c 12.24219,12.23828 12.30469,32.26562 -0.17187,44.30859 -12.07813,11.65625 -31.3711,11.54297 -43.26953,-0.35547 l -22.6211,-22.62109 c -0.28515,-0.28516 -0.67968,-0.42969 -1.08203,-0.40625 -3.13672,0.19531 -3.90625,3.27344 -2.30468,4.87109 L 173.75,240.66797 c 14.03516,14.03515 36.79297,14.16797 51.04297,0.41797 14.71484,-14.20703 14.64453,-37.83203 0.20312,-52.27344"
           fill-opacity="1"
           fill-rule="nonzero"
           id="path12" />
      </g>
    </g>
  </g>
</svg>
